<svg xmlns="http://www.w3.org/2000/svg" xmlns:xlink="http://www.w3.org/1999/xlink" width="40" zoomAndPan="magnify" viewBox="0 0 30 30.000001" height="40" preserveAspectRatio="xMidYMid meet" version="1.0"><defs><clipPath id="196386cad5"><path d="M 0.660156 12 L 7 12 L 7 27 L 0.660156 27 Z M 0.660156 12 " clip-rule="nonzero"/></clipPath><clipPath id="f948c9c1a6"><path d="M 13 1.453125 L 22 1.453125 L 22 6 L 13 6 Z M 13 1.453125 " clip-rule="nonzero"/></clipPath><clipPath id="10f213b6f3"><path d="M 5 18 L 29 18 L 29 27.582031 L 5 27.582031 Z M 5 18 " clip-rule="nonzero"/></clipPath></defs><path fill="#ffde59" d="M 20.617188 2.050781 L 19.507812 4.617188 L 15.464844 4.617188 L 13.964844 2.050781 L 14.972656 2.21875 C 16.507812 2.476562 18.074219 2.476562 19.609375 2.21875 Z M 20.617188 2.050781 " fill-opacity="1" fill-rule="nonzero"/><path fill="#ffbd59" d="M 19.507812 4.617188 C 20.121094 4.617188 20.617188 5.117188 20.617188 5.726562 C 20.617188 6.339844 20.121094 6.835938 19.507812 6.835938 L 15.464844 6.835938 C 14.855469 6.835938 14.355469 6.339844 14.355469 5.726562 C 14.355469 5.117188 14.855469 4.617188 15.464844 4.617188 Z M 19.507812 4.617188 " fill-opacity="1" fill-rule="nonzero"/><path fill="#ffde59" d="M 24.464844 17.847656 C 24.464844 18.539062 24.269531 19.191406 23.929688 19.742188 L 18.429688 21.453125 L 18.207031 21.453125 C 18.664062 21.164062 18.953125 20.605469 18.953125 20.121094 C 18.984375 19.167969 18.21875 18.40625 17.289062 18.40625 L 11.191406 18.40625 L 10.699219 17.910156 C 10.644531 16.890625 10.691406 15.78125 10.972656 14.796875 C 12.148438 10.65625 14.234375 7.890625 15.292969 6.835938 C 16.15625 6.835938 18.980469 6.835938 19.84375 6.835938 C 22.757812 9.742188 24.46875 13.65625 24.464844 17.847656 Z M 24.464844 17.847656 " fill-opacity="1" fill-rule="nonzero"/><path fill="#004aad" d="M 6.203125 25.613281 L 1.214844 25.613281 L 1.214844 13.414062 L 6.203125 13.414062 C 6.203125 13.992188 6.203125 24.890625 6.203125 25.613281 Z M 6.203125 25.613281 " fill-opacity="1" fill-rule="nonzero"/><path fill="#ffdfcf" d="M 17.289062 18.40625 C 18.222656 18.40625 18.980469 19.171875 18.953125 20.121094 C 18.953125 20.480469 18.789062 20.902344 18.507812 21.199219 C 18.324219 21.394531 18.105469 21.542969 17.855469 21.632812 C 29.507812 18.003906 21.3125 20.554688 26.328125 18.992188 C 27.398438 18.78125 28.378906 19.601562 28.378906 20.675781 C 28.378906 21.414062 27.90625 22.066406 27.207031 22.300781 L 15.074219 27 L 7.867188 24.503906 L 6.203125 24.503906 C 6.203125 23.1875 6.203125 16.410156 6.203125 15.632812 L 8.421875 15.632812 C 8.75 15.964844 10.890625 18.105469 11.191406 18.40625 Z M 17.289062 18.40625 " fill-opacity="1" fill-rule="nonzero"/><g clip-path="url(#196386cad5)"><path fill="#000000" d="M 6.203125 26.167969 L 1.214844 26.167969 C 0.90625 26.167969 0.660156 25.917969 0.660156 25.613281 L 0.660156 13.414062 C 0.660156 13.109375 0.90625 12.859375 1.214844 12.859375 L 6.203125 12.859375 C 6.507812 12.859375 6.757812 13.109375 6.757812 13.414062 L 6.757812 25.613281 C 6.757812 25.917969 6.507812 26.167969 6.203125 26.167969 Z M 1.765625 25.058594 L 5.648438 25.058594 L 5.648438 13.96875 L 1.765625 13.96875 Z M 1.765625 25.058594 " fill-opacity="1" fill-rule="nonzero"/></g><path fill="#000000" d="M 3.984375 23.394531 C 3.679688 23.394531 3.429688 23.148438 3.429688 22.839844 L 3.429688 22.285156 C 3.429688 21.980469 3.679688 21.730469 3.984375 21.730469 C 4.292969 21.730469 4.539062 21.980469 4.539062 22.285156 L 4.539062 22.839844 C 4.539062 23.148438 4.292969 23.394531 3.984375 23.394531 Z M 3.984375 23.394531 " fill-opacity="1" fill-rule="nonzero"/><path fill="#000000" d="M 19.507812 7.390625 C 19.203125 7.390625 18.953125 7.140625 18.953125 6.835938 C 18.953125 6.53125 19.203125 6.28125 19.507812 6.28125 C 19.8125 6.28125 20.0625 6.035156 20.0625 5.726562 C 20.0625 5.421875 19.8125 5.171875 19.507812 5.171875 L 15.464844 5.171875 C 15.160156 5.171875 14.910156 5.421875 14.910156 5.726562 C 14.910156 6.03125 15.160156 6.28125 15.464844 6.28125 C 15.773438 6.28125 16.019531 6.53125 16.019531 6.835938 C 16.019531 7.140625 15.773438 7.390625 15.464844 7.390625 C 14.546875 7.390625 13.800781 6.644531 13.800781 5.726562 C 13.800781 4.808594 14.546875 4.0625 15.464844 4.0625 L 19.507812 4.0625 C 20.425781 4.0625 21.171875 4.808594 21.171875 5.726562 C 21.171875 6.171875 21 6.589844 20.683594 6.902344 C 20.371094 7.21875 19.953125 7.390625 19.507812 7.390625 Z M 19.507812 7.390625 " fill-opacity="1" fill-rule="nonzero"/><path fill="#000000" d="M 23.640625 20.210938 C 23.378906 20.050781 23.296875 19.710938 23.457031 19.449219 C 23.753906 18.96875 23.910156 18.414062 23.910156 17.84375 C 23.914062 13.980469 22.40625 10.261719 19.609375 7.390625 L 15.527344 7.390625 C 14.257812 8.730469 12.5 11.4375 11.507812 14.945312 C 11.277344 15.757812 11.191406 16.746094 11.253906 17.882812 C 11.269531 18.1875 11.035156 18.449219 10.730469 18.464844 C 10.425781 18.480469 10.160156 18.246094 10.144531 17.941406 C 10.078125 16.679688 10.175781 15.570312 10.441406 14.644531 C 11.535156 10.78125 13.527344 7.8125 14.902344 6.445312 C 15.003906 6.339844 15.144531 6.28125 15.292969 6.28125 L 19.84375 6.28125 C 19.988281 6.28125 20.128906 6.339844 20.234375 6.445312 C 23.332031 9.53125 25.023438 13.605469 25.019531 17.847656 C 25.019531 18.621094 24.804688 19.375 24.402344 20.03125 C 24.242188 20.292969 23.898438 20.371094 23.640625 20.210938 Z M 23.640625 20.210938 " fill-opacity="1" fill-rule="nonzero"/><g clip-path="url(#f948c9c1a6)"><path fill="#000000" d="M 19.289062 5.128906 C 19.007812 5.007812 18.878906 4.679688 19 4.398438 L 19.703125 2.765625 L 19.699219 2.765625 C 18.152344 3.023438 16.585938 3.03125 15.039062 2.789062 L 15.945312 4.339844 C 16.097656 4.601562 16.007812 4.941406 15.746094 5.097656 C 15.480469 5.25 15.140625 5.164062 14.988281 4.898438 L 13.484375 2.332031 C 13.378906 2.144531 13.386719 1.914062 13.507812 1.734375 C 13.628906 1.558594 13.84375 1.46875 14.054688 1.503906 L 15.0625 1.671875 C 16.542969 1.917969 18.039062 1.917969 19.515625 1.671875 L 20.527344 1.503906 C 20.726562 1.46875 20.929688 1.550781 21.054688 1.707031 C 21.179688 1.867188 21.207031 2.085938 21.125 2.269531 L 20.015625 4.839844 C 19.894531 5.117188 19.570312 5.25 19.289062 5.128906 Z M 19.289062 5.128906 " fill-opacity="1" fill-rule="nonzero"/></g><path fill="#000000" d="M 17.574219 15.355469 L 16.464844 15.355469 C 16.15625 15.355469 15.910156 15.109375 15.910156 14.800781 C 15.910156 14.496094 16.15625 14.246094 16.464844 14.246094 L 17.574219 14.246094 C 17.722656 14.246094 17.859375 14.191406 17.964844 14.085938 C 18.179688 13.867188 18.179688 13.519531 17.964844 13.300781 C 17.859375 13.195312 17.722656 13.136719 17.574219 13.136719 C 16.648438 13.136719 15.910156 12.390625 15.910156 11.476562 C 15.910156 10.558594 16.65625 9.8125 17.574219 9.8125 L 18.683594 9.8125 C 18.988281 9.8125 19.234375 10.058594 19.234375 10.367188 C 19.234375 10.671875 18.988281 10.921875 18.683594 10.921875 L 17.574219 10.921875 C 17.265625 10.921875 17.019531 11.167969 17.019531 11.476562 C 17.019531 11.777344 17.265625 12.03125 17.574219 12.03125 C 18.015625 12.03125 18.433594 12.203125 18.75 12.515625 C 19.398438 13.167969 19.398438 14.21875 18.75 14.867188 C 18.433594 15.183594 18.015625 15.355469 17.574219 15.355469 Z M 17.574219 15.355469 " fill-opacity="1" fill-rule="nonzero"/><path fill="#000000" d="M 17.574219 10.921875 C 17.265625 10.921875 17.019531 10.671875 17.019531 10.367188 L 17.019531 9.257812 C 17.019531 8.953125 17.265625 8.703125 17.574219 8.703125 C 17.878906 8.703125 18.128906 8.953125 18.128906 9.257812 L 18.128906 10.367188 C 18.128906 10.671875 17.878906 10.921875 17.574219 10.921875 Z M 17.574219 10.921875 " fill-opacity="1" fill-rule="nonzero"/><path fill="#000000" d="M 17.574219 16.464844 C 17.265625 16.464844 17.019531 16.214844 17.019531 15.910156 L 17.019531 14.800781 C 17.019531 14.496094 17.265625 14.246094 17.574219 14.246094 C 17.878906 14.246094 18.128906 14.496094 18.128906 14.800781 L 18.128906 15.910156 C 18.128906 16.214844 17.878906 16.464844 17.574219 16.464844 Z M 17.574219 16.464844 " fill-opacity="1" fill-rule="nonzero"/><g clip-path="url(#10f213b6f3)"><path fill="#000000" d="M 14.890625 27.523438 L 7.773438 25.058594 L 6.203125 25.058594 C 5.898438 25.058594 5.648438 24.808594 5.648438 24.503906 C 5.648438 24.199219 5.898438 23.949219 6.203125 23.949219 L 7.867188 23.949219 C 7.925781 23.949219 7.988281 23.960938 8.046875 23.980469 L 15.0625 26.40625 C 27.59375 21.554688 27.007812 21.78125 27.03125 21.773438 C 27.503906 21.617188 27.824219 21.175781 27.824219 20.675781 C 27.824219 19.964844 27.1875 19.40625 26.460938 19.53125 L 18.019531 22.164062 C 17.726562 22.253906 17.414062 22.089844 17.324219 21.796875 C 17.234375 21.507812 17.398438 21.195312 17.6875 21.105469 C 26.578125 18.335938 26.167969 18.460938 26.222656 18.449219 C 27.636719 18.167969 28.933594 19.25 28.933594 20.675781 C 28.933594 21.648438 28.316406 22.507812 27.394531 22.820312 L 15.273438 27.515625 C 15.152344 27.5625 15.015625 27.566406 14.890625 27.523438 Z M 14.890625 27.523438 " fill-opacity="1" fill-rule="nonzero"/></g><path fill="#000000" d="M 17.289062 22.285156 L 11.191406 22.285156 C 10.886719 22.285156 10.636719 22.039062 10.636719 21.730469 C 10.636719 21.425781 10.886719 21.175781 11.191406 21.175781 L 17.289062 21.175781 C 17.425781 21.175781 17.546875 21.152344 17.664062 21.113281 C 18.070312 20.964844 18.386719 20.570312 18.398438 20.105469 C 18.417969 19.46875 17.90625 18.960938 17.289062 18.960938 L 11.191406 18.960938 C 11.046875 18.960938 10.902344 18.902344 10.800781 18.796875 L 8.191406 16.1875 L 6.203125 16.1875 C 5.898438 16.1875 5.648438 15.9375 5.648438 15.632812 C 5.648438 15.328125 5.898438 15.078125 6.203125 15.078125 L 8.421875 15.078125 C 8.566406 15.078125 8.707031 15.136719 8.8125 15.242188 L 11.421875 17.851562 L 17.289062 17.851562 C 18.515625 17.851562 19.507812 18.84375 19.507812 20.070312 C 19.507812 21.289062 18.515625 22.285156 17.289062 22.285156 Z M 17.289062 22.285156 " fill-opacity="1" fill-rule="nonzero"/><path fill="#000000" d="M 3.984375 24.503906 C 3.679688 24.503906 3.429688 24.253906 3.429688 23.949219 L 3.429688 22.839844 C 3.429688 22.535156 3.679688 22.285156 3.984375 22.285156 C 4.292969 22.285156 4.539062 22.535156 4.539062 22.839844 L 4.539062 23.949219 C 4.539062 24.253906 4.292969 24.503906 3.984375 24.503906 Z M 3.984375 24.503906 " fill-opacity="1" fill-rule="nonzero"/></svg>