<svg xmlns="http://www.w3.org/2000/svg" xmlns:xlink="http://www.w3.org/1999/xlink" width="40" zoomAndPan="magnify" viewBox="0 0 30 30.000001" height="40" preserveAspectRatio="xMidYMid meet" version="1.0"><defs><clipPath id="d2420d91d2"><path d="M 1.597656 1.238281 L 28.453125 1.238281 L 28.453125 28 L 1.597656 28 Z M 1.597656 1.238281 " clip-rule="nonzero"/></clipPath></defs><path fill="#004aad" d="M 22.828125 6.554688 L 6.6875 6.425781 L 8.230469 27.4375 L 13.074219 27.390625 L 14.625 13.578125 L 23.53125 13.589844 Z M 22.828125 6.554688 " fill-opacity="1" fill-rule="evenodd"/><path fill="#977e63" d="M 6.675781 6.554688 L 8.226562 27.4375 L 2.089844 27.484375 L 4.277344 6.519531 Z M 16.210938 13.578125 L 14.621094 13.632812 L 13.074219 27.390625 L 17.347656 27.378906 Z M 16.210938 13.578125 " fill-opacity="1" fill-rule="evenodd"/><path fill="#ff6100" d="M 27.113281 13.695312 L 16.210938 13.578125 L 17.5 27.558594 L 27.980469 27.425781 Z M 27.113281 13.695312 " fill-opacity="1" fill-rule="evenodd"/><path fill="#ffffff" d="M 22.8125 7.820312 L 4.207031 7.820312 L 4.207031 6.453125 L 22.8125 6.453125 Z M 14.472656 13.605469 L 14.472656 14.929688 L 26.964844 14.929688 L 26.964844 13.605469 Z M 14.472656 13.605469 " fill-opacity="1" fill-rule="evenodd"/><g clip-path="url(#d2420d91d2)"><path fill="#000000" d="M 28.449219 27.378906 L 27.542969 13.628906 C 27.542969 13.390625 27.347656 13.195312 27.109375 13.195312 L 25.003906 13.195312 L 25.003906 12.691406 C 25.003906 11.96875 24.683594 11.3125 24.167969 10.835938 C 24.019531 10.703125 23.855469 10.582031 23.679688 10.480469 L 23.417969 6.523438 C 23.417969 6.285156 23.222656 6.089844 22.984375 6.089844 L 19.230469 6.089844 L 19.230469 5.097656 C 19.230469 4.035156 18.761719 3.070312 18.003906 2.375 C 17.253906 1.683594 16.222656 1.257812 15.09375 1.257812 C 14.492188 1.257812 13.921875 1.378906 13.40625 1.59375 C 12.890625 1.378906 12.320312 1.257812 11.71875 1.257812 C 10.589844 1.257812 9.558594 1.683594 8.8125 2.375 C 8.050781 3.070312 7.582031 4.035156 7.582031 5.097656 L 7.582031 6.09375 L 6.765625 6.09375 C 6.753906 6.09375 6.742188 6.089844 6.730469 6.089844 L 4.089844 6.09375 C 3.867188 6.09375 3.679688 6.257812 3.660156 6.480469 L 1.601562 27.363281 L 1.597656 27.410156 C 1.601562 27.648438 1.796875 27.839844 2.03125 27.839844 L 7.910156 27.839844 C 7.984375 27.839844 8.023438 27.839844 8.109375 27.839844 L 28.046875 27.839844 C 28.285156 27.824219 28.464844 27.617188 28.449219 27.378906 Z M 24.136719 12.691406 L 24.136719 13.195312 L 23.859375 13.195312 L 23.757812 11.65625 C 23.996094 11.945312 24.136719 12.304688 24.136719 12.691406 Z M 19.402344 13.195312 L 17.5 13.195312 L 17.5 12.691406 C 17.5 12.21875 17.714844 11.789062 18.054688 11.472656 C 18.40625 11.148438 18.894531 10.949219 19.433594 10.949219 C 19.648438 10.949219 19.851562 10.980469 20.042969 11.035156 C 19.640625 11.488281 19.402344 12.0625 19.402344 12.691406 Z M 20.269531 12.691406 C 20.269531 12.222656 20.480469 11.792969 20.820312 11.476562 C 21.15625 11.792969 21.367188 12.222656 21.367188 12.691406 L 21.367188 13.195312 L 20.265625 13.195312 L 20.265625 12.691406 Z M 21.597656 11.039062 C 21.785156 10.980469 21.992188 10.949219 22.203125 10.949219 C 22.429688 10.949219 22.648438 10.984375 22.851562 11.050781 L 22.992188 13.195312 L 22.234375 13.195312 L 22.234375 12.691406 C 22.234375 12.066406 21.996094 11.488281 21.597656 11.039062 Z M 15.09375 2.125 C 16 2.125 16.820312 2.464844 17.417969 3.007812 C 18 3.546875 18.363281 4.285156 18.363281 5.097656 L 18.363281 6.089844 L 15.859375 6.089844 L 15.859375 5.097656 C 15.859375 4.035156 15.390625 3.070312 14.628906 2.375 C 14.558594 2.308594 14.488281 2.25 14.414062 2.191406 C 14.632812 2.148438 14.859375 2.125 15.09375 2.125 Z M 12.765625 3.007812 C 12.957031 2.835938 13.171875 2.679688 13.40625 2.550781 C 13.640625 2.679688 13.855469 2.835938 14.046875 3.007812 C 14.628906 3.546875 14.992188 4.285156 14.992188 5.097656 L 14.992188 6.09375 L 11.820312 6.09375 L 11.820312 5.097656 C 11.820312 4.285156 12.183594 3.546875 12.765625 3.007812 Z M 8.449219 5.097656 C 8.449219 4.285156 8.8125 3.546875 9.394531 3.007812 C 9.988281 2.464844 10.8125 2.125 11.71875 2.125 C 11.953125 2.125 12.179688 2.148438 12.398438 2.191406 C 12.324219 2.25 12.25 2.308594 12.183594 2.375 C 11.425781 3.070312 10.953125 4.035156 10.953125 5.097656 L 10.953125 6.09375 L 8.449219 6.09375 Z M 10.953125 6.957031 L 10.953125 9.253906 C 10.953125 9.496094 11.148438 9.6875 11.386719 9.6875 C 11.625 9.6875 11.820312 9.496094 11.820312 9.253906 L 11.820312 6.957031 L 18.363281 6.957031 L 18.363281 9.253906 C 18.363281 9.496094 18.558594 9.6875 18.796875 9.6875 C 19.035156 9.6875 19.230469 9.496094 19.230469 9.253906 L 19.230469 6.957031 L 22.578125 6.957031 L 22.789062 10.140625 C 22.601562 10.105469 22.402344 10.082031 22.203125 10.082031 C 21.699219 10.082031 21.226562 10.207031 20.820312 10.425781 C 20.410156 10.210938 19.9375 10.082031 19.433594 10.082031 C 18.671875 10.082031 17.976562 10.371094 17.472656 10.835938 C 16.957031 11.3125 16.636719 11.964844 16.636719 12.691406 L 16.636719 13.195312 L 16.394531 13.195312 C 16.390625 13.195312 16.390625 13.195312 16.386719 13.195312 L 14.550781 13.195312 C 14.332031 13.195312 14.144531 13.363281 14.121094 13.585938 L 12.703125 26.972656 L 8.515625 26.972656 L 7.191406 6.957031 Z M 4.480469 6.957031 L 6.324219 6.957031 L 7.644531 26.914062 L 2.507812 26.96875 Z M 14.941406 14.0625 L 15.980469 14.0625 L 16.835938 26.972656 L 13.570312 26.972656 Z M 17.699219 26.972656 L 16.847656 14.0625 L 19.402344 14.0625 L 19.402344 15.347656 C 19.402344 15.585938 19.597656 15.78125 19.835938 15.78125 C 20.074219 15.78125 20.269531 15.585938 20.269531 15.347656 L 20.269531 14.0625 L 24.136719 14.0625 L 24.136719 15.347656 C 24.136719 15.585938 24.332031 15.78125 24.570312 15.78125 C 24.808594 15.78125 25.003906 15.585938 25.003906 15.347656 L 25.003906 14.0625 L 26.703125 14.0625 L 27.558594 26.972656 Z M 17.699219 26.972656 " fill-opacity="1" fill-rule="nonzero"/></g></svg>