<svg xmlns="http://www.w3.org/2000/svg" xmlns:xlink="http://www.w3.org/1999/xlink" width="40" zoomAndPan="magnify" viewBox="0 0 30 30.000001" height="40" preserveAspectRatio="xMidYMid meet" version="1.0"><defs><clipPath id="720d5aec0f"><path d="M 1.316406 1.089844 L 15.832031 1.089844 L 15.832031 9.800781 L 1.316406 9.800781 Z M 1.316406 1.089844 " clip-rule="nonzero"/></clipPath><clipPath id="5e5f3eab55"><path d="M 2 12 L 15.726562 12 L 15.726562 27.925781 L 2 27.925781 Z M 2 12 " clip-rule="nonzero"/></clipPath><clipPath id="11e190f767"><path d="M 2.59375 12.851562 L 15.613281 12.851562 L 15.613281 27.628906 L 2.59375 27.628906 Z M 2.59375 12.851562 " clip-rule="nonzero"/></clipPath><clipPath id="2aa8ec1945"><path d="M 2 11.230469 L 6 11.230469 L 6 21 L 2 21 Z M 2 11.230469 " clip-rule="nonzero"/></clipPath><clipPath id="c1ef121b17"><path d="M 1.9375 11.230469 L 6 11.230469 L 6 21 L 1.9375 21 Z M 1.9375 11.230469 " clip-rule="nonzero"/></clipPath><clipPath id="1082d61961"><path d="M 3 26 L 5 26 L 5 27.925781 L 3 27.925781 Z M 3 26 " clip-rule="nonzero"/></clipPath><clipPath id="c6b6141a7e"><path d="M 14 26 L 15.726562 26 L 15.726562 27.925781 L 14 27.925781 Z M 14 26 " clip-rule="nonzero"/></clipPath><clipPath id="5a06e56bf3"><path d="M 14 13 L 15.726562 13 L 15.726562 15 L 14 15 Z M 14 13 " clip-rule="nonzero"/></clipPath><clipPath id="1a7cebbee2"><path d="M 1.9375 16 L 3 16 L 3 21 L 1.9375 21 Z M 1.9375 16 " clip-rule="nonzero"/></clipPath><clipPath id="5b04bfa961"><path d="M 1.9375 15 L 3 15 L 3 18 L 1.9375 18 Z M 1.9375 15 " clip-rule="nonzero"/></clipPath><clipPath id="aa98322428"><path d="M 1.9375 13 L 3 13 L 3 16 L 1.9375 16 Z M 1.9375 13 " clip-rule="nonzero"/></clipPath><clipPath id="76b024ee3a"><path d="M 1.9375 12 L 3 12 L 3 15 L 1.9375 15 Z M 1.9375 12 " clip-rule="nonzero"/></clipPath><clipPath id="82e1808833"><path d="M 2 11.230469 L 3 11.230469 L 3 13 L 2 13 Z M 2 11.230469 " clip-rule="nonzero"/></clipPath><clipPath id="7b4f3a640c"><path d="M 1.9375 11.230469 L 3 11.230469 L 3 13 L 1.9375 13 Z M 1.9375 11.230469 " clip-rule="nonzero"/></clipPath><clipPath id="d941965402"><path d="M 2 11.230469 L 3 11.230469 L 3 14 L 2 14 Z M 2 11.230469 " clip-rule="nonzero"/></clipPath><clipPath id="1b06480d0c"><path d="M 1.9375 11.230469 L 3 11.230469 L 3 14 L 1.9375 14 Z M 1.9375 11.230469 " clip-rule="nonzero"/></clipPath><clipPath id="62f29f7ece"><path d="M 1.9375 13 L 3 13 L 3 15 L 1.9375 15 Z M 1.9375 13 " clip-rule="nonzero"/></clipPath><clipPath id="c927464d6f"><path d="M 1.9375 14 L 3 14 L 3 17 L 1.9375 17 Z M 1.9375 14 " clip-rule="nonzero"/></clipPath><clipPath id="481fcee71a"><path d="M 1.9375 16 L 3 16 L 3 18 L 1.9375 18 Z M 1.9375 16 " clip-rule="nonzero"/></clipPath><clipPath id="bf929b375d"><path d="M 16.859375 19.167969 L 28.472656 19.167969 L 28.472656 27.878906 L 16.859375 27.878906 Z M 16.859375 19.167969 " clip-rule="nonzero"/></clipPath><clipPath id="a07574431f"><path d="M 18.203125 8.484375 L 26.910156 8.484375 L 26.910156 17.195312 L 18.203125 17.195312 Z M 18.203125 8.484375 " clip-rule="nonzero"/></clipPath><clipPath id="6de7ba86ac"><path d="M 16.859375 1.089844 L 28.472656 1.089844 L 28.472656 6.898438 L 16.859375 6.898438 Z M 16.859375 1.089844 " clip-rule="nonzero"/></clipPath><clipPath id="b3f4a15e91"><path d="M 18 1.089844 L 24 1.089844 L 24 6 L 18 6 Z M 18 1.089844 " clip-rule="nonzero"/></clipPath><clipPath id="256dfa67cb"><path d="M 24 1.089844 L 26 1.089844 L 26 6 L 24 6 Z M 24 1.089844 " clip-rule="nonzero"/></clipPath><clipPath id="38fc57da9e"><path d="M 25 1.089844 L 27 1.089844 L 27 6 L 25 6 Z M 25 1.089844 " clip-rule="nonzero"/></clipPath></defs><g clip-path="url(#720d5aec0f)"><path fill="#ff3131" d="M 2.902344 2.152344 L 2.640625 2.152344 C 2.640625 2.003906 2.519531 1.886719 2.375 1.886719 L 1.578125 1.886719 C 1.433594 1.886719 1.316406 2.003906 1.316406 2.152344 C 1.316406 2.296875 1.433594 2.414062 1.578125 2.414062 L 2.109375 2.414062 L 2.109375 9.832031 C 2.109375 9.976562 2.230469 10.097656 2.375 10.097656 C 2.519531 10.097656 2.640625 9.976562 2.640625 9.832031 L 2.640625 9.300781 L 3.433594 9.300781 C 3.578125 9.300781 3.699219 9.183594 3.699219 9.035156 L 3.699219 8.507812 L 5.023438 8.507812 L 5.023438 9.300781 C 5.023438 9.445312 5.140625 9.566406 5.289062 9.566406 L 6.347656 9.566406 C 6.492188 9.566406 6.613281 9.445312 6.613281 9.300781 L 6.613281 8.507812 L 6.875 8.507812 L 6.875 9.300781 C 6.875 9.445312 6.996094 9.566406 7.140625 9.566406 L 10.320312 9.566406 C 10.464844 9.566406 10.585938 9.445312 10.585938 9.300781 L 10.585938 8.507812 L 10.847656 8.507812 L 10.847656 9.300781 C 10.847656 9.445312 10.96875 9.566406 11.113281 9.566406 L 12.171875 9.566406 C 12.320312 9.566406 12.4375 9.445312 12.4375 9.300781 L 12.4375 8.507812 L 14.292969 8.507812 C 14.347656 8.507812 14.40625 8.488281 14.449219 8.453125 L 15.511719 7.660156 C 15.578125 7.609375 15.617188 7.53125 15.617188 7.449219 L 15.617188 2.152344 C 15.617188 2.066406 15.578125 1.988281 15.511719 1.9375 L 14.449219 1.144531 C 14.40625 1.109375 14.347656 1.089844 14.292969 1.089844 L 3.167969 1.089844 C 3.023438 1.089844 2.902344 1.210938 2.902344 1.355469 Z M 11.90625 8.507812 L 11.378906 8.507812 L 11.378906 9.035156 L 11.90625 9.035156 Z M 6.082031 8.507812 L 5.550781 8.507812 L 5.550781 9.035156 L 6.082031 9.035156 Z M 10.054688 8.507812 L 7.40625 8.507812 L 7.40625 9.035156 L 10.054688 9.035156 Z M 2.902344 2.679688 L 2.640625 2.679688 L 2.640625 8.773438 L 3.167969 8.773438 L 3.167969 8.507812 C 3.023438 8.507812 2.902344 8.386719 2.902344 8.242188 Z M 3.433594 1.621094 L 14.203125 1.621094 L 15.085938 2.285156 L 15.085938 7.316406 L 14.203125 7.976562 L 3.433594 7.976562 Z M 11.90625 2.414062 C 10.59375 2.414062 9.523438 3.484375 9.523438 4.800781 C 9.523438 6.113281 10.59375 7.183594 11.90625 7.183594 C 13.222656 7.183594 14.292969 6.113281 14.292969 4.800781 C 14.292969 3.484375 13.222656 2.414062 11.90625 2.414062 Z M 6.613281 2.414062 C 5.296875 2.414062 4.226562 3.484375 4.226562 4.800781 C 4.226562 6.113281 5.296875 7.183594 6.613281 7.183594 C 7.925781 7.183594 8.996094 6.113281 8.996094 4.800781 C 8.996094 3.484375 7.925781 2.414062 6.613281 2.414062 Z M 6.074219 5.710938 L 5.5 6.285156 C 5.746094 6.464844 6.03125 6.589844 6.347656 6.632812 L 6.347656 5.824219 C 6.25 5.800781 6.15625 5.761719 6.074219 5.710938 Z M 11.371094 5.710938 L 10.796875 6.285156 C 11.042969 6.464844 11.328125 6.589844 11.644531 6.632812 L 11.644531 5.824219 C 11.546875 5.800781 11.453125 5.761719 11.371094 5.710938 Z M 7.148438 5.710938 C 7.066406 5.761719 6.972656 5.800781 6.875 5.824219 L 6.875 6.632812 C 7.191406 6.589844 7.480469 6.464844 7.722656 6.285156 Z M 12.445312 5.710938 C 12.363281 5.761719 12.269531 5.800781 12.171875 5.824219 L 12.171875 6.632812 C 12.488281 6.589844 12.777344 6.464844 13.019531 6.285156 Z M 13.742188 5.0625 L 12.933594 5.0625 C 12.910156 5.160156 12.871094 5.253906 12.820312 5.335938 L 13.394531 5.910156 C 13.574219 5.667969 13.699219 5.378906 13.742188 5.0625 Z M 8.445312 5.0625 L 7.636719 5.0625 C 7.613281 5.160156 7.574219 5.253906 7.523438 5.335938 L 8.097656 5.910156 C 8.277344 5.667969 8.402344 5.378906 8.445312 5.0625 Z M 5.585938 5.0625 L 4.777344 5.0625 C 4.820312 5.378906 4.945312 5.667969 5.128906 5.910156 L 5.699219 5.335938 C 5.648438 5.253906 5.609375 5.160156 5.585938 5.0625 Z M 10.882812 5.0625 L 10.074219 5.0625 C 10.117188 5.378906 10.242188 5.667969 10.421875 5.910156 L 10.996094 5.335938 C 10.945312 5.253906 10.90625 5.160156 10.882812 5.0625 Z M 11.90625 4.269531 C 12.199219 4.269531 12.4375 4.507812 12.4375 4.800781 C 12.4375 5.09375 12.199219 5.328125 11.90625 5.328125 C 11.617188 5.328125 11.378906 5.09375 11.378906 4.800781 C 11.378906 4.507812 11.617188 4.269531 11.90625 4.269531 Z M 6.613281 4.269531 C 6.90625 4.269531 7.140625 4.507812 7.140625 4.800781 C 7.140625 5.09375 6.90625 5.328125 6.613281 5.328125 C 6.320312 5.328125 6.082031 5.09375 6.082031 4.800781 C 6.082031 4.507812 6.320312 4.269531 6.613281 4.269531 Z M 13.394531 3.6875 L 12.820312 4.261719 C 12.871094 4.34375 12.910156 4.4375 12.933594 4.535156 L 13.742188 4.535156 C 13.699219 4.21875 13.574219 3.929688 13.394531 3.6875 Z M 10.421875 3.6875 C 10.242188 3.933594 10.117188 4.21875 10.074219 4.535156 L 10.882812 4.535156 C 10.90625 4.4375 10.945312 4.34375 10.996094 4.261719 Z M 8.097656 3.6875 L 7.523438 4.261719 C 7.574219 4.34375 7.613281 4.4375 7.636719 4.535156 L 8.445312 4.535156 C 8.402344 4.21875 8.277344 3.929688 8.097656 3.6875 Z M 5.128906 3.6875 C 4.945312 3.933594 4.820312 4.21875 4.777344 4.535156 L 5.585938 4.535156 C 5.609375 4.4375 5.648438 4.34375 5.699219 4.261719 Z M 11.644531 2.964844 C 11.328125 3.007812 11.039062 3.132812 10.796875 3.316406 L 11.371094 3.886719 C 11.453125 3.835938 11.546875 3.796875 11.644531 3.773438 Z M 6.875 2.964844 L 6.875 3.773438 C 6.972656 3.796875 7.066406 3.835938 7.148438 3.886719 L 7.722656 3.316406 C 7.476562 3.132812 7.191406 3.007812 6.875 2.964844 Z M 6.347656 2.964844 C 6.03125 3.007812 5.742188 3.132812 5.5 3.316406 L 6.074219 3.886719 C 6.15625 3.835938 6.25 3.796875 6.347656 3.773438 Z M 12.171875 2.964844 L 12.171875 3.773438 C 12.269531 3.796875 12.363281 3.835938 12.445312 3.886719 L 13.019531 3.316406 C 12.773438 3.132812 12.488281 3.007812 12.171875 2.964844 " fill-opacity="1" fill-rule="evenodd"/></g><g clip-path="url(#5e5f3eab55)"><path fill="#ff6100" d="M 2.695312 12.953125 L 15.535156 12.953125 L 15.535156 27.546875 L 2.695312 27.546875 L 2.695312 12.953125 " fill-opacity="1" fill-rule="nonzero"/></g><g clip-path="url(#11e190f767)"><path fill="#000000" d="M 2.777344 27.464844 L 15.453125 27.464844 L 15.453125 13.03125 L 2.777344 13.03125 Z M 15.535156 27.628906 L 2.695312 27.628906 C 2.652344 27.628906 2.613281 27.59375 2.613281 27.546875 L 2.613281 12.953125 C 2.613281 12.90625 2.652344 12.871094 2.695312 12.871094 L 15.535156 12.871094 C 15.578125 12.871094 15.613281 12.90625 15.613281 12.953125 L 15.613281 27.546875 C 15.613281 27.59375 15.578125 27.628906 15.535156 27.628906 " fill-opacity="1" fill-rule="nonzero"/></g><path fill="#ff6100" d="M 14.054688 21.761719 L 14.054688 24.390625 L 12.917969 24.390625 L 12.898438 24.375 C 12.902344 24.378906 12.902344 24.386719 12.902344 24.390625 L 11.425781 24.390625 L 10.53125 23.496094 L 10.53125 20.867188 L 12.21875 20.867188 L 12.230469 20.878906 C 12.238281 20.875 12.242188 20.871094 12.242188 20.867188 L 13.160156 20.867188 L 14.054688 21.761719 " fill-opacity="1" fill-rule="nonzero"/><path fill="#000000" d="M 12.945312 24.308594 L 13.972656 24.308594 L 13.972656 21.796875 L 13.125 20.949219 L 12.273438 20.949219 C 12.269531 20.949219 12.269531 20.949219 12.265625 20.953125 C 12.242188 20.964844 12.210938 20.960938 12.1875 20.949219 L 10.613281 20.949219 L 10.613281 23.460938 L 11.460938 24.308594 L 12.84375 24.308594 C 12.84375 24.308594 12.847656 24.304688 12.847656 24.304688 C 12.878906 24.28125 12.917969 24.289062 12.945312 24.308594 Z M 14.054688 24.472656 L 12.917969 24.472656 C 12.914062 24.472656 12.90625 24.472656 12.902344 24.472656 L 11.425781 24.472656 C 11.40625 24.472656 11.382812 24.460938 11.367188 24.445312 L 10.476562 23.550781 C 10.460938 23.535156 10.453125 23.515625 10.453125 23.496094 L 10.453125 20.867188 C 10.453125 20.824219 10.488281 20.785156 10.53125 20.785156 L 12.21875 20.785156 C 12.226562 20.785156 12.234375 20.785156 12.242188 20.785156 L 13.160156 20.785156 C 13.179688 20.785156 13.203125 20.792969 13.21875 20.808594 L 14.113281 21.707031 C 14.128906 21.71875 14.136719 21.742188 14.136719 21.761719 L 14.136719 24.390625 C 14.136719 24.433594 14.097656 24.472656 14.054688 24.472656 " fill-opacity="1" fill-rule="nonzero"/><path fill="#ff6100" d="M 10.605469 20.867188 L 10.628906 20.867188 C 10.628906 20.871094 10.625 20.875 10.617188 20.878906 L 10.605469 20.867188 " fill-opacity="1" fill-rule="nonzero"/><path fill="#000000" d="M 10.582031 20.804688 L 10.609375 20.863281 Z M 10.617188 20.960938 C 10.597656 20.960938 10.578125 20.953125 10.5625 20.9375 C 10.539062 20.914062 10.523438 20.871094 10.539062 20.84375 C 10.550781 20.8125 10.574219 20.785156 10.605469 20.785156 L 10.628906 20.785156 C 10.671875 20.785156 10.707031 20.824219 10.707031 20.867188 C 10.707031 20.898438 10.683594 20.9375 10.65625 20.949219 C 10.644531 20.957031 10.628906 20.960938 10.617188 20.960938 " fill-opacity="1" fill-rule="nonzero"/><path fill="#ff6100" d="M 8.082031 24.390625 L 8.0625 24.390625 C 8.0625 24.386719 8.0625 24.378906 8.0625 24.375 L 8.082031 24.390625 " fill-opacity="1" fill-rule="nonzero"/><path fill="#000000" d="M 8.082031 24.472656 L 8.0625 24.472656 C 8.019531 24.472656 7.980469 24.433594 7.980469 24.390625 C 7.96875 24.355469 7.984375 24.324219 8.011719 24.304688 C 8.039062 24.28125 8.082031 24.289062 8.109375 24.308594 L 8.128906 24.324219 C 8.15625 24.34375 8.167969 24.382812 8.160156 24.414062 C 8.148438 24.449219 8.117188 24.472656 8.082031 24.472656 " fill-opacity="1" fill-rule="nonzero"/><path fill="#ff6100" d="M 13.628906 15.089844 L 14.277344 15.089844 L 14.277344 20.25 L 13.628906 20.25 L 13.628906 15.089844 " fill-opacity="1" fill-rule="nonzero"/><path fill="#000000" d="M 13.710938 20.167969 L 14.195312 20.167969 L 14.195312 15.167969 L 13.710938 15.167969 Z M 14.277344 20.332031 L 13.628906 20.332031 C 13.585938 20.332031 13.550781 20.292969 13.550781 20.25 L 13.550781 15.089844 C 13.550781 15.042969 13.585938 15.007812 13.628906 15.007812 L 14.277344 15.007812 C 14.320312 15.007812 14.355469 15.042969 14.355469 15.089844 L 14.355469 20.25 C 14.355469 20.292969 14.320312 20.332031 14.277344 20.332031 " fill-opacity="1" fill-rule="nonzero"/><path fill="#ff6100" d="M 12.515625 15.089844 L 13.160156 15.089844 L 13.160156 20.25 L 12.515625 20.25 L 12.515625 15.089844 " fill-opacity="1" fill-rule="nonzero"/><path fill="#000000" d="M 12.59375 20.167969 L 13.078125 20.167969 L 13.078125 15.167969 L 12.59375 15.167969 Z M 13.160156 20.332031 L 12.515625 20.332031 C 12.46875 20.332031 12.433594 20.292969 12.433594 20.25 L 12.433594 15.089844 C 12.433594 15.042969 12.46875 15.007812 12.515625 15.007812 L 13.160156 15.007812 C 13.203125 15.007812 13.242188 15.042969 13.242188 15.089844 L 13.242188 20.25 C 13.242188 20.292969 13.203125 20.332031 13.160156 20.332031 " fill-opacity="1" fill-rule="nonzero"/><path fill="#ff6100" d="M 11.398438 15.089844 L 12.046875 15.089844 L 12.046875 20.25 L 11.398438 20.25 L 11.398438 15.089844 " fill-opacity="1" fill-rule="nonzero"/><path fill="#000000" d="M 11.480469 20.167969 L 11.964844 20.167969 L 11.964844 15.167969 L 11.480469 15.167969 Z M 12.046875 20.332031 L 11.402344 20.332031 C 11.355469 20.332031 11.320312 20.292969 11.320312 20.25 L 11.320312 15.089844 C 11.320312 15.042969 11.355469 15.007812 11.402344 15.007812 L 12.046875 15.007812 C 12.089844 15.007812 12.125 15.042969 12.125 15.089844 L 12.125 20.25 C 12.125 20.292969 12.089844 20.332031 12.046875 20.332031 " fill-opacity="1" fill-rule="nonzero"/><path fill="#ff6100" d="M 10.285156 15.089844 L 10.929688 15.089844 L 10.929688 20.25 L 10.285156 20.25 L 10.285156 15.089844 " fill-opacity="1" fill-rule="nonzero"/><path fill="#000000" d="M 10.367188 20.167969 L 10.847656 20.167969 L 10.847656 15.167969 L 10.367188 15.167969 Z M 10.929688 20.332031 L 10.285156 20.332031 C 10.238281 20.332031 10.203125 20.292969 10.203125 20.25 L 10.203125 15.089844 C 10.203125 15.042969 10.238281 15.007812 10.285156 15.007812 L 10.929688 15.007812 C 10.972656 15.007812 11.011719 15.042969 11.011719 15.089844 L 11.011719 20.25 C 11.011719 20.292969 10.972656 20.332031 10.929688 20.332031 " fill-opacity="1" fill-rule="nonzero"/><path fill="#ff6100" d="M 5.285156 23.703125 L 8.871094 23.703125 L 8.871094 24.347656 L 5.285156 24.347656 L 5.285156 23.703125 " fill-opacity="1" fill-rule="nonzero"/><path fill="#000000" d="M 5.367188 24.269531 L 8.789062 24.269531 L 8.789062 23.785156 L 5.367188 23.785156 Z M 8.871094 24.429688 L 5.285156 24.429688 C 5.238281 24.429688 5.203125 24.394531 5.203125 24.347656 L 5.203125 23.703125 C 5.203125 23.660156 5.238281 23.625 5.285156 23.625 L 8.871094 23.625 C 8.917969 23.625 8.953125 23.660156 8.953125 23.703125 L 8.953125 24.347656 C 8.953125 24.394531 8.917969 24.429688 8.871094 24.429688 " fill-opacity="1" fill-rule="nonzero"/><path fill="#ff6100" d="M 12.050781 25.773438 C 11.917969 25.773438 11.808594 25.664062 11.808594 25.53125 C 11.808594 25.398438 11.917969 25.289062 12.050781 25.289062 C 12.1875 25.289062 12.292969 25.398438 12.292969 25.53125 C 12.292969 25.664062 12.1875 25.773438 12.050781 25.773438 Z M 8.65625 26.257812 C 8.523438 26.257812 8.414062 26.148438 8.414062 26.015625 C 8.414062 25.882812 8.523438 25.773438 8.65625 25.773438 C 8.789062 25.773438 8.898438 25.882812 8.898438 26.015625 C 8.898438 26.148438 8.789062 26.257812 8.65625 26.257812 Z M 8.484375 25.007812 L 7.675781 26.539062 L 12.097656 26.539062 L 13.066406 25.007812 L 8.484375 25.007812 " fill-opacity="1" fill-rule="nonzero"/><path fill="#000000" d="M 12.050781 25.371094 C 11.964844 25.371094 11.890625 25.441406 11.890625 25.53125 C 11.890625 25.621094 11.964844 25.691406 12.050781 25.691406 C 12.140625 25.691406 12.210938 25.621094 12.210938 25.53125 C 12.210938 25.441406 12.140625 25.371094 12.050781 25.371094 Z M 12.050781 25.855469 C 11.875 25.855469 11.730469 25.710938 11.730469 25.53125 C 11.730469 25.351562 11.875 25.207031 12.050781 25.207031 C 12.230469 25.207031 12.375 25.351562 12.375 25.53125 C 12.375 25.710938 12.230469 25.855469 12.050781 25.855469 Z M 8.65625 25.855469 C 8.566406 25.855469 8.496094 25.925781 8.496094 26.015625 C 8.496094 26.105469 8.566406 26.175781 8.65625 26.175781 C 8.742188 26.175781 8.816406 26.105469 8.816406 26.015625 C 8.816406 25.925781 8.742188 25.855469 8.65625 25.855469 Z M 8.65625 26.339844 C 8.476562 26.339844 8.332031 26.191406 8.332031 26.015625 C 8.332031 25.835938 8.476562 25.691406 8.65625 25.691406 C 8.832031 25.691406 8.976562 25.835938 8.976562 26.015625 C 8.976562 26.191406 8.832031 26.339844 8.65625 26.339844 Z M 7.8125 26.457031 L 12.050781 26.457031 L 12.917969 25.089844 L 8.53125 25.089844 Z M 12.097656 26.621094 L 7.675781 26.621094 C 7.648438 26.621094 7.621094 26.605469 7.605469 26.582031 C 7.59375 26.558594 7.589844 26.527344 7.605469 26.5 L 8.410156 24.96875 C 8.425781 24.941406 8.453125 24.925781 8.484375 24.925781 L 13.066406 24.925781 C 13.09375 24.925781 13.121094 24.941406 13.136719 24.96875 C 13.148438 24.996094 13.148438 25.027344 13.132812 25.050781 L 12.164062 26.582031 C 12.152344 26.605469 12.125 26.621094 12.097656 26.621094 " fill-opacity="1" fill-rule="nonzero"/><path fill="#ff6100" d="M 6.871094 16.796875 L 8.402344 16.796875 L 8.402344 18.328125 L 6.871094 18.328125 Z M 6.425781 16.3125 L 6.425781 18.8125 L 8.84375 18.8125 L 8.84375 16.3125 L 6.425781 16.3125 " fill-opacity="1" fill-rule="nonzero"/><path fill="#000000" d="M 6.949219 18.246094 L 8.320312 18.246094 L 8.320312 16.875 L 6.949219 16.875 Z M 8.402344 18.40625 L 6.871094 18.40625 C 6.824219 18.40625 6.789062 18.371094 6.789062 18.328125 L 6.789062 16.796875 C 6.789062 16.75 6.824219 16.714844 6.871094 16.714844 L 8.402344 16.714844 C 8.445312 16.714844 8.484375 16.75 8.484375 16.796875 L 8.484375 18.328125 C 8.484375 18.371094 8.445312 18.40625 8.402344 18.40625 Z M 6.507812 18.730469 L 8.765625 18.730469 L 8.765625 16.390625 L 6.507812 16.390625 Z M 8.84375 18.890625 L 6.425781 18.890625 C 6.382812 18.890625 6.34375 18.855469 6.34375 18.8125 L 6.34375 16.3125 C 6.34375 16.265625 6.382812 16.230469 6.425781 16.230469 L 8.84375 16.230469 C 8.890625 16.230469 8.925781 16.265625 8.925781 16.3125 L 8.925781 18.8125 C 8.925781 18.855469 8.890625 18.890625 8.84375 18.890625 " fill-opacity="1" fill-rule="nonzero"/><path fill="#ff6100" d="M 7.03125 16.957031 L 8.5625 16.957031 L 8.5625 18.488281 L 7.03125 18.488281 L 7.03125 16.957031 " fill-opacity="1" fill-rule="nonzero"/><path fill="#000000" d="M 7.113281 18.40625 L 8.480469 18.40625 L 8.480469 17.039062 L 7.113281 17.039062 Z M 8.5625 18.570312 L 7.03125 18.570312 C 6.984375 18.570312 6.949219 18.53125 6.949219 18.488281 L 6.949219 16.957031 C 6.949219 16.910156 6.984375 16.875 7.03125 16.875 L 8.5625 16.875 C 8.609375 16.875 8.644531 16.910156 8.644531 16.957031 L 8.644531 18.488281 C 8.644531 18.53125 8.609375 18.570312 8.5625 18.570312 " fill-opacity="1" fill-rule="nonzero"/><path fill="#ff6100" d="M 4.328125 20.253906 L 5.363281 20.253906 L 5.363281 21.480469 L 4.328125 21.480469 L 4.328125 20.253906 " fill-opacity="1" fill-rule="nonzero"/><path fill="#000000" d="M 4.410156 21.402344 L 5.285156 21.402344 L 5.285156 20.335938 L 4.410156 20.335938 Z M 5.367188 21.5625 L 4.328125 21.5625 C 4.285156 21.5625 4.25 21.527344 4.25 21.480469 L 4.25 20.253906 C 4.25 20.207031 4.285156 20.171875 4.328125 20.171875 L 5.367188 20.171875 C 5.410156 20.171875 5.445312 20.207031 5.445312 20.253906 L 5.445312 21.480469 C 5.445312 21.527344 5.410156 21.5625 5.367188 21.5625 " fill-opacity="1" fill-rule="nonzero"/><path fill="#ff6100" d="M 7.757812 15.617188 L 7.757812 16.3125 L 7.433594 16.3125 L 7.433594 15.617188 C 7.433594 15.527344 7.507812 15.453125 7.59375 15.453125 C 7.6875 15.453125 7.757812 15.527344 7.757812 15.617188 " fill-opacity="1" fill-rule="nonzero"/><path fill="#000000" d="M 7.515625 16.230469 L 7.675781 16.230469 L 7.675781 15.617188 C 7.675781 15.570312 7.640625 15.535156 7.59375 15.535156 C 7.550781 15.535156 7.515625 15.570312 7.515625 15.617188 Z M 7.757812 16.390625 L 7.433594 16.390625 C 7.390625 16.390625 7.351562 16.355469 7.351562 16.3125 L 7.351562 15.617188 C 7.351562 15.480469 7.460938 15.375 7.59375 15.375 C 7.730469 15.375 7.839844 15.480469 7.839844 15.617188 L 7.839844 16.3125 C 7.839844 16.355469 7.800781 16.390625 7.757812 16.390625 " fill-opacity="1" fill-rule="nonzero"/><path fill="#ff6100" d="M 8.558594 15.613281 L 8.558594 16.3125 L 8.238281 16.3125 C 8.238281 16.308594 8.238281 16.308594 8.238281 16.308594 L 8.238281 15.613281 C 8.238281 15.523438 8.308594 15.453125 8.398438 15.453125 C 8.488281 15.453125 8.558594 15.523438 8.558594 15.613281 " fill-opacity="1" fill-rule="nonzero"/><path fill="#000000" d="M 8.320312 16.230469 L 8.480469 16.230469 L 8.480469 15.613281 C 8.480469 15.570312 8.441406 15.53125 8.398438 15.53125 C 8.355469 15.53125 8.320312 15.570312 8.320312 15.613281 Z M 8.558594 16.390625 L 8.238281 16.390625 C 8.191406 16.390625 8.15625 16.355469 8.15625 16.3125 L 8.15625 15.613281 C 8.15625 15.480469 8.265625 15.371094 8.398438 15.371094 C 8.53125 15.371094 8.640625 15.480469 8.640625 15.613281 L 8.640625 16.3125 C 8.640625 16.355469 8.605469 16.390625 8.558594 16.390625 " fill-opacity="1" fill-rule="nonzero"/><path fill="#ff6100" d="M 7.03125 15.617188 L 7.03125 16.3125 L 6.707031 16.3125 L 6.707031 15.617188 C 6.707031 15.527344 6.78125 15.453125 6.871094 15.453125 C 6.960938 15.453125 7.03125 15.527344 7.03125 15.617188 " fill-opacity="1" fill-rule="nonzero"/><path fill="#000000" d="M 6.789062 16.230469 L 6.949219 16.230469 L 6.949219 15.617188 C 6.949219 15.570312 6.914062 15.535156 6.871094 15.535156 C 6.824219 15.535156 6.789062 15.570312 6.789062 15.617188 Z M 7.03125 16.390625 L 6.707031 16.390625 C 6.664062 16.390625 6.628906 16.355469 6.628906 16.3125 L 6.628906 15.617188 C 6.628906 15.480469 6.734375 15.375 6.871094 15.375 C 7.003906 15.375 7.113281 15.480469 7.113281 15.617188 L 7.113281 16.3125 C 7.113281 16.355469 7.074219 16.390625 7.03125 16.390625 " fill-opacity="1" fill-rule="nonzero"/><path fill="#ff6100" d="M 6.425781 17.441406 L 6.425781 17.761719 L 5.730469 17.761719 C 5.644531 17.761719 5.570312 17.691406 5.570312 17.601562 C 5.570312 17.511719 5.644531 17.441406 5.730469 17.441406 L 6.425781 17.441406 " fill-opacity="1" fill-rule="nonzero"/><path fill="#000000" d="M 5.730469 17.519531 C 5.6875 17.519531 5.652344 17.558594 5.652344 17.601562 C 5.652344 17.644531 5.6875 17.679688 5.730469 17.679688 L 6.34375 17.679688 L 6.34375 17.519531 Z M 6.425781 17.84375 L 5.730469 17.84375 C 5.597656 17.84375 5.488281 17.734375 5.488281 17.601562 C 5.488281 17.46875 5.597656 17.359375 5.730469 17.359375 L 6.425781 17.359375 C 6.472656 17.359375 6.507812 17.394531 6.507812 17.441406 L 6.507812 17.761719 C 6.507812 17.808594 6.472656 17.84375 6.425781 17.84375 " fill-opacity="1" fill-rule="nonzero"/><path fill="#ff6100" d="M 6.425781 16.636719 L 6.425781 16.960938 C 6.425781 16.960938 6.425781 16.960938 6.421875 16.960938 L 5.726562 16.960938 C 5.640625 16.960938 5.566406 16.886719 5.566406 16.796875 C 5.566406 16.710938 5.640625 16.636719 5.726562 16.636719 L 6.425781 16.636719 " fill-opacity="1" fill-rule="nonzero"/><path fill="#000000" d="M 5.726562 16.71875 C 5.683594 16.71875 5.648438 16.753906 5.648438 16.796875 C 5.648438 16.84375 5.683594 16.878906 5.726562 16.878906 L 6.34375 16.878906 L 6.34375 16.71875 Z M 6.425781 17.039062 L 5.726562 17.039062 C 5.59375 17.039062 5.484375 16.933594 5.484375 16.796875 C 5.484375 16.664062 5.59375 16.554688 5.726562 16.554688 L 6.425781 16.554688 C 6.472656 16.554688 6.507812 16.59375 6.507812 16.636719 L 6.507812 16.960938 C 6.507812 17.003906 6.472656 17.039062 6.425781 17.039062 " fill-opacity="1" fill-rule="nonzero"/><path fill="#ff6100" d="M 6.425781 18.164062 L 6.425781 18.488281 L 5.730469 18.488281 C 5.644531 18.488281 5.570312 18.417969 5.570312 18.328125 C 5.570312 18.238281 5.644531 18.164062 5.730469 18.164062 L 6.425781 18.164062 " fill-opacity="1" fill-rule="nonzero"/><path fill="#000000" d="M 5.730469 18.246094 C 5.6875 18.246094 5.652344 18.285156 5.652344 18.328125 C 5.652344 18.371094 5.6875 18.40625 5.730469 18.40625 L 6.34375 18.40625 L 6.34375 18.246094 Z M 6.425781 18.570312 L 5.730469 18.570312 C 5.597656 18.570312 5.488281 18.460938 5.488281 18.328125 C 5.488281 18.191406 5.597656 18.085938 5.730469 18.085938 L 6.425781 18.085938 C 6.472656 18.085938 6.507812 18.121094 6.507812 18.164062 L 6.507812 18.488281 C 6.507812 18.53125 6.472656 18.570312 6.425781 18.570312 " fill-opacity="1" fill-rule="nonzero"/><path fill="#ff6100" d="M 7.835938 18.8125 L 7.835938 19.507812 C 7.835938 19.597656 7.765625 19.667969 7.675781 19.667969 C 7.585938 19.667969 7.515625 19.597656 7.515625 19.507812 L 7.515625 18.8125 L 7.835938 18.8125 " fill-opacity="1" fill-rule="nonzero"/><path fill="#000000" d="M 7.597656 18.890625 L 7.597656 19.507812 C 7.597656 19.550781 7.632812 19.589844 7.675781 19.589844 C 7.722656 19.589844 7.757812 19.554688 7.757812 19.507812 L 7.757812 18.890625 Z M 7.675781 19.75 C 7.542969 19.75 7.433594 19.640625 7.433594 19.507812 L 7.433594 18.8125 C 7.433594 18.765625 7.46875 18.730469 7.515625 18.730469 L 7.835938 18.730469 C 7.882812 18.730469 7.917969 18.765625 7.917969 18.8125 L 7.917969 19.507812 C 7.917969 19.640625 7.808594 19.75 7.675781 19.75 " fill-opacity="1" fill-rule="nonzero"/><path fill="#ff6100" d="M 7.035156 18.8125 L 7.035156 19.511719 C 7.035156 19.601562 6.964844 19.671875 6.875 19.671875 C 6.785156 19.671875 6.710938 19.601562 6.710938 19.511719 L 6.710938 18.8125 L 7.035156 18.8125 " fill-opacity="1" fill-rule="nonzero"/><path fill="#000000" d="M 6.792969 18.890625 L 6.792969 19.511719 C 6.792969 19.554688 6.828125 19.589844 6.875 19.589844 C 6.917969 19.589844 6.953125 19.554688 6.953125 19.511719 L 6.953125 18.890625 Z M 6.875 19.753906 C 6.738281 19.753906 6.628906 19.644531 6.628906 19.511719 L 6.628906 18.8125 C 6.628906 18.769531 6.667969 18.730469 6.710938 18.730469 L 7.035156 18.730469 C 7.078125 18.730469 7.117188 18.765625 7.117188 18.8125 L 7.117188 19.511719 C 7.117188 19.644531 7.007812 19.753906 6.875 19.753906 " fill-opacity="1" fill-rule="nonzero"/><path fill="#ff6100" d="M 8.5625 18.8125 L 8.5625 19.507812 C 8.5625 19.597656 8.492188 19.667969 8.402344 19.667969 C 8.3125 19.667969 8.242188 19.597656 8.242188 19.507812 L 8.242188 18.8125 L 8.5625 18.8125 " fill-opacity="1" fill-rule="nonzero"/><path fill="#000000" d="M 8.320312 18.890625 L 8.320312 19.507812 C 8.320312 19.550781 8.359375 19.589844 8.402344 19.589844 C 8.445312 19.589844 8.480469 19.554688 8.480469 19.507812 L 8.480469 18.890625 Z M 8.402344 19.75 C 8.269531 19.75 8.160156 19.640625 8.160156 19.507812 L 8.160156 18.8125 C 8.160156 18.765625 8.195312 18.730469 8.242188 18.730469 L 8.5625 18.730469 C 8.609375 18.730469 8.644531 18.765625 8.644531 18.8125 L 8.644531 19.507812 C 8.644531 19.640625 8.535156 19.75 8.402344 19.75 " fill-opacity="1" fill-rule="nonzero"/><path fill="#ff6100" d="M 9.703125 17.519531 C 9.703125 17.609375 9.632812 17.683594 9.542969 17.683594 L 8.84375 17.683594 L 8.84375 17.359375 L 9.542969 17.359375 C 9.632812 17.359375 9.703125 17.433594 9.703125 17.519531 " fill-opacity="1" fill-rule="nonzero"/><path fill="#000000" d="M 8.925781 17.601562 L 9.542969 17.601562 C 9.585938 17.601562 9.621094 17.566406 9.621094 17.519531 C 9.621094 17.476562 9.585938 17.441406 9.542969 17.441406 L 8.925781 17.441406 Z M 9.542969 17.761719 L 8.84375 17.761719 C 8.800781 17.761719 8.765625 17.726562 8.765625 17.683594 L 8.765625 17.359375 C 8.765625 17.316406 8.800781 17.277344 8.84375 17.277344 L 9.542969 17.277344 C 9.675781 17.277344 9.785156 17.386719 9.785156 17.519531 C 9.785156 17.65625 9.675781 17.761719 9.542969 17.761719 " fill-opacity="1" fill-rule="nonzero"/><path fill="#ff6100" d="M 9.707031 18.324219 C 9.707031 18.414062 9.632812 18.484375 9.546875 18.484375 L 8.847656 18.484375 C 8.847656 18.484375 8.847656 18.484375 8.84375 18.484375 L 8.84375 18.164062 L 9.546875 18.164062 C 9.632812 18.164062 9.707031 18.234375 9.707031 18.324219 " fill-opacity="1" fill-rule="nonzero"/><path fill="#000000" d="M 8.925781 18.402344 L 9.546875 18.402344 C 9.589844 18.402344 9.625 18.367188 9.625 18.324219 C 9.625 18.28125 9.589844 18.242188 9.546875 18.242188 L 8.925781 18.242188 Z M 9.546875 18.566406 L 8.847656 18.566406 C 8.804688 18.566406 8.765625 18.53125 8.765625 18.484375 L 8.765625 18.164062 C 8.765625 18.117188 8.800781 18.082031 8.84375 18.082031 L 9.546875 18.082031 C 9.679688 18.082031 9.789062 18.191406 9.789062 18.324219 C 9.789062 18.457031 9.679688 18.566406 9.546875 18.566406 " fill-opacity="1" fill-rule="nonzero"/><path fill="#ff6100" d="M 9.703125 16.796875 C 9.703125 16.886719 9.632812 16.957031 9.542969 16.957031 L 8.84375 16.957031 L 8.84375 16.632812 L 9.542969 16.632812 C 9.632812 16.632812 9.703125 16.707031 9.703125 16.796875 " fill-opacity="1" fill-rule="nonzero"/><path fill="#000000" d="M 8.925781 16.875 L 9.542969 16.875 C 9.585938 16.875 9.621094 16.839844 9.621094 16.796875 C 9.621094 16.75 9.585938 16.714844 9.542969 16.714844 L 8.925781 16.714844 Z M 9.542969 17.039062 L 8.84375 17.039062 C 8.800781 17.039062 8.765625 17 8.765625 16.957031 L 8.765625 16.632812 C 8.765625 16.589844 8.800781 16.550781 8.84375 16.550781 L 9.542969 16.550781 C 9.675781 16.550781 9.785156 16.660156 9.785156 16.796875 C 9.785156 16.929688 9.675781 17.039062 9.542969 17.039062 " fill-opacity="1" fill-rule="nonzero"/><g clip-path="url(#2aa8ec1945)"><path fill="#ff6100" d="M 5.191406 14.066406 L 5.191406 17.507812 L 4.785156 17.957031 L 4.722656 18.027344 L 4.089844 18.726562 L 4 18.824219 L 2.695312 20.265625 L 2.019531 20.25 L 2.019531 11.328125 L 2.636719 11.328125 L 2.695312 11.390625 L 4.152344 12.953125 L 5.191406 14.066406 " fill-opacity="1" fill-rule="nonzero"/></g><g clip-path="url(#c1ef121b17)"><path fill="#000000" d="M 2.101562 20.171875 L 2.660156 20.183594 L 5.109375 17.476562 L 5.109375 14.101562 L 2.601562 11.40625 L 2.101562 11.40625 Z M 2.695312 20.347656 L 2.015625 20.332031 C 1.972656 20.328125 1.9375 20.292969 1.9375 20.25 L 1.9375 11.328125 C 1.9375 11.28125 1.972656 11.246094 2.019531 11.246094 L 2.636719 11.246094 C 2.660156 11.246094 2.679688 11.253906 2.695312 11.269531 L 5.25 14.011719 C 5.265625 14.027344 5.273438 14.046875 5.273438 14.066406 L 5.273438 17.507812 C 5.273438 17.527344 5.265625 17.546875 5.25 17.5625 L 2.757812 20.320312 C 2.742188 20.339844 2.71875 20.347656 2.695312 20.347656 " fill-opacity="1" fill-rule="nonzero"/></g><path fill="#ff6100" d="M 3.953125 26.660156 C 3.953125 26.839844 3.808594 26.984375 3.632812 26.984375 C 3.453125 26.984375 3.308594 26.839844 3.308594 26.660156 C 3.308594 26.480469 3.453125 26.335938 3.632812 26.335938 C 3.808594 26.335938 3.953125 26.480469 3.953125 26.660156 " fill-opacity="1" fill-rule="nonzero"/><g clip-path="url(#1082d61961)"><path fill="#000000" d="M 3.632812 26.417969 C 3.5 26.417969 3.390625 26.527344 3.390625 26.660156 C 3.390625 26.792969 3.5 26.902344 3.632812 26.902344 C 3.765625 26.902344 3.871094 26.792969 3.871094 26.660156 C 3.871094 26.527344 3.765625 26.417969 3.632812 26.417969 Z M 3.632812 27.0625 C 3.410156 27.0625 3.226562 26.882812 3.226562 26.660156 C 3.226562 26.4375 3.410156 26.257812 3.632812 26.257812 C 3.855469 26.257812 4.035156 26.4375 4.035156 26.660156 C 4.035156 26.882812 3.855469 27.0625 3.632812 27.0625 " fill-opacity="1" fill-rule="nonzero"/></g><path fill="#ff6100" d="M 8.847656 20.847656 C 8.847656 21.230469 8.539062 21.542969 8.152344 21.542969 C 7.769531 21.542969 7.457031 21.230469 7.457031 20.847656 C 7.457031 20.464844 7.769531 20.152344 8.152344 20.152344 C 8.539062 20.152344 8.847656 20.464844 8.847656 20.847656 " fill-opacity="1" fill-rule="nonzero"/><path fill="#000000" d="M 8.152344 20.234375 C 7.816406 20.234375 7.539062 20.507812 7.539062 20.847656 C 7.539062 21.1875 7.816406 21.460938 8.152344 21.460938 C 8.492188 21.460938 8.769531 21.1875 8.769531 20.847656 C 8.769531 20.507812 8.492188 20.234375 8.152344 20.234375 Z M 8.152344 21.625 C 7.726562 21.625 7.378906 21.277344 7.378906 20.847656 C 7.378906 20.421875 7.726562 20.070312 8.152344 20.070312 C 8.582031 20.070312 8.929688 20.421875 8.929688 20.847656 C 8.929688 21.277344 8.582031 21.625 8.152344 21.625 " fill-opacity="1" fill-rule="nonzero"/><path fill="#ff6100" d="M 14.921875 26.660156 C 14.921875 26.839844 14.777344 26.984375 14.597656 26.984375 C 14.421875 26.984375 14.277344 26.839844 14.277344 26.660156 C 14.277344 26.480469 14.421875 26.335938 14.597656 26.335938 C 14.777344 26.335938 14.921875 26.480469 14.921875 26.660156 " fill-opacity="1" fill-rule="nonzero"/><g clip-path="url(#c6b6141a7e)"><path fill="#000000" d="M 14.597656 26.417969 C 14.464844 26.417969 14.355469 26.527344 14.355469 26.660156 C 14.355469 26.792969 14.464844 26.902344 14.597656 26.902344 C 14.730469 26.902344 14.839844 26.792969 14.839844 26.660156 C 14.839844 26.527344 14.730469 26.417969 14.597656 26.417969 Z M 14.597656 27.0625 C 14.375 27.0625 14.195312 26.882812 14.195312 26.660156 C 14.195312 26.4375 14.375 26.257812 14.597656 26.257812 C 14.820312 26.257812 15.003906 26.4375 15.003906 26.660156 C 15.003906 26.882812 14.820312 27.0625 14.597656 27.0625 " fill-opacity="1" fill-rule="nonzero"/></g><path fill="#ff6100" d="M 14.921875 13.839844 C 14.921875 14.015625 14.777344 14.160156 14.597656 14.160156 C 14.421875 14.160156 14.277344 14.015625 14.277344 13.839844 C 14.277344 13.660156 14.421875 13.515625 14.597656 13.515625 C 14.777344 13.515625 14.921875 13.660156 14.921875 13.839844 " fill-opacity="1" fill-rule="nonzero"/><g clip-path="url(#5a06e56bf3)"><path fill="#000000" d="M 14.597656 13.597656 C 14.464844 13.597656 14.355469 13.707031 14.355469 13.839844 C 14.355469 13.972656 14.464844 14.082031 14.597656 14.082031 C 14.730469 14.082031 14.839844 13.972656 14.839844 13.839844 C 14.839844 13.707031 14.730469 13.597656 14.597656 13.597656 Z M 14.597656 14.242188 C 14.375 14.242188 14.195312 14.0625 14.195312 13.839844 C 14.195312 13.617188 14.375 13.433594 14.597656 13.433594 C 14.820312 13.433594 15.003906 13.617188 15.003906 13.839844 C 15.003906 14.0625 14.820312 14.242188 14.597656 14.242188 " fill-opacity="1" fill-rule="nonzero"/></g><path fill="#ff6100" d="M 8.898438 26.015625 C 8.898438 26.148438 8.789062 26.257812 8.65625 26.257812 C 8.523438 26.257812 8.414062 26.148438 8.414062 26.015625 C 8.414062 25.882812 8.523438 25.773438 8.65625 25.773438 C 8.789062 25.773438 8.898438 25.882812 8.898438 26.015625 " fill-opacity="1" fill-rule="nonzero"/><path fill="#000000" d="M 8.65625 25.855469 C 8.566406 25.855469 8.496094 25.925781 8.496094 26.015625 C 8.496094 26.105469 8.566406 26.175781 8.65625 26.175781 C 8.742188 26.175781 8.816406 26.105469 8.816406 26.015625 C 8.816406 25.925781 8.742188 25.855469 8.65625 25.855469 Z M 8.65625 26.339844 C 8.476562 26.339844 8.332031 26.191406 8.332031 26.015625 C 8.332031 25.835938 8.476562 25.691406 8.65625 25.691406 C 8.832031 25.691406 8.976562 25.835938 8.976562 26.015625 C 8.976562 26.191406 8.832031 26.339844 8.65625 26.339844 " fill-opacity="1" fill-rule="nonzero"/><path fill="#ff6100" d="M 12.292969 25.53125 C 12.292969 25.664062 12.1875 25.773438 12.050781 25.773438 C 11.917969 25.773438 11.808594 25.664062 11.808594 25.53125 C 11.808594 25.398438 11.917969 25.289062 12.050781 25.289062 C 12.1875 25.289062 12.292969 25.398438 12.292969 25.53125 " fill-opacity="1" fill-rule="nonzero"/><path fill="#000000" d="M 12.050781 25.371094 C 11.964844 25.371094 11.890625 25.441406 11.890625 25.53125 C 11.890625 25.621094 11.964844 25.691406 12.050781 25.691406 C 12.140625 25.691406 12.210938 25.621094 12.210938 25.53125 C 12.210938 25.441406 12.140625 25.371094 12.050781 25.371094 Z M 12.050781 25.855469 C 11.875 25.855469 11.730469 25.710938 11.730469 25.53125 C 11.730469 25.351562 11.875 25.207031 12.050781 25.207031 C 12.230469 25.207031 12.375 25.351562 12.375 25.53125 C 12.375 25.710938 12.230469 25.855469 12.050781 25.855469 " fill-opacity="1" fill-rule="nonzero"/><path fill="#ff6100" d="M 11.574219 13.304688 L 10.605469 14 L 10.160156 14.324219 L 9.640625 14.695312 L 5.757812 14.695312 L 5.757812 12.335938 L 10.605469 12.335938 L 11.574219 13.304688 " fill-opacity="1" fill-rule="nonzero"/><path fill="#000000" d="M 5.839844 14.613281 L 9.613281 14.613281 L 11.449219 13.296875 L 10.574219 12.417969 L 5.839844 12.417969 Z M 9.640625 14.777344 L 5.757812 14.777344 C 5.710938 14.777344 5.675781 14.738281 5.675781 14.695312 L 5.675781 12.335938 C 5.675781 12.292969 5.710938 12.257812 5.757812 12.257812 L 10.605469 12.257812 C 10.628906 12.257812 10.648438 12.265625 10.664062 12.28125 L 11.632812 13.246094 C 11.648438 13.265625 11.65625 13.289062 11.65625 13.3125 C 11.652344 13.335938 11.640625 13.355469 11.621094 13.371094 L 9.6875 14.761719 C 9.671875 14.769531 9.65625 14.777344 9.640625 14.777344 " fill-opacity="1" fill-rule="nonzero"/><path fill="#ff6100" d="M 4.847656 25.570312 L 6.78125 25.570312 L 6.78125 26.863281 L 4.847656 26.863281 L 4.847656 25.570312 " fill-opacity="1" fill-rule="nonzero"/><path fill="#000000" d="M 4.929688 26.78125 L 6.703125 26.78125 L 6.703125 25.652344 L 4.929688 25.652344 Z M 6.78125 26.941406 L 4.847656 26.941406 C 4.804688 26.941406 4.765625 26.90625 4.765625 26.863281 L 4.765625 25.570312 C 4.765625 25.527344 4.804688 25.492188 4.847656 25.492188 L 6.78125 25.492188 C 6.828125 25.492188 6.863281 25.527344 6.863281 25.570312 L 6.863281 26.863281 C 6.863281 26.90625 6.828125 26.941406 6.78125 26.941406 " fill-opacity="1" fill-rule="nonzero"/><path fill="#ff6100" d="M 4.117188 22.347656 C 4.117188 22.433594 4.042969 22.507812 3.953125 22.507812 L 2.695312 22.507812 L 2.695312 22.183594 L 3.953125 22.183594 C 4.042969 22.183594 4.117188 22.257812 4.117188 22.347656 " fill-opacity="1" fill-rule="nonzero"/><path fill="#000000" d="M 2.777344 22.425781 L 3.953125 22.425781 C 4 22.425781 4.035156 22.390625 4.035156 22.347656 C 4.035156 22.304688 3.996094 22.265625 3.953125 22.265625 L 2.777344 22.265625 Z M 3.953125 22.589844 L 2.695312 22.589844 C 2.652344 22.589844 2.613281 22.550781 2.613281 22.507812 L 2.613281 22.183594 C 2.613281 22.140625 2.652344 22.105469 2.695312 22.105469 L 3.953125 22.105469 C 4.085938 22.105469 4.195312 22.210938 4.195312 22.347656 C 4.195312 22.480469 4.085938 22.589844 3.953125 22.589844 " fill-opacity="1" fill-rule="nonzero"/><path fill="#ff6100" d="M 4.117188 23.085938 C 4.117188 23.175781 4.042969 23.246094 3.953125 23.246094 L 2.695312 23.246094 L 2.695312 22.921875 L 3.953125 22.921875 C 4.042969 22.921875 4.117188 22.996094 4.117188 23.085938 " fill-opacity="1" fill-rule="nonzero"/><path fill="#000000" d="M 2.777344 23.164062 L 3.953125 23.164062 C 4 23.164062 4.035156 23.128906 4.035156 23.085938 C 4.035156 23.042969 3.996094 23.003906 3.953125 23.003906 L 2.777344 23.003906 Z M 3.953125 23.328125 L 2.695312 23.328125 C 2.652344 23.328125 2.613281 23.289062 2.613281 23.246094 L 2.613281 22.921875 C 2.613281 22.878906 2.652344 22.84375 2.695312 22.84375 L 3.953125 22.84375 C 4.085938 22.84375 4.195312 22.949219 4.195312 23.085938 C 4.195312 23.21875 4.085938 23.328125 3.953125 23.328125 " fill-opacity="1" fill-rule="nonzero"/><path fill="#ff6100" d="M 4.117188 23.824219 C 4.117188 23.914062 4.042969 23.988281 3.953125 23.988281 L 2.695312 23.988281 L 2.695312 23.664062 L 3.953125 23.664062 C 4.042969 23.664062 4.117188 23.734375 4.117188 23.824219 " fill-opacity="1" fill-rule="nonzero"/><path fill="#000000" d="M 2.777344 23.90625 L 3.953125 23.90625 C 3.996094 23.90625 4.035156 23.867188 4.035156 23.824219 C 4.035156 23.78125 4 23.746094 3.953125 23.746094 L 2.777344 23.746094 Z M 3.953125 24.066406 L 2.695312 24.066406 C 2.652344 24.066406 2.613281 24.03125 2.613281 23.988281 L 2.613281 23.664062 C 2.613281 23.621094 2.652344 23.582031 2.695312 23.582031 L 3.953125 23.582031 C 4.085938 23.582031 4.195312 23.691406 4.195312 23.824219 C 4.195312 23.960938 4.085938 24.066406 3.953125 24.066406 " fill-opacity="1" fill-rule="nonzero"/><path fill="#ff6100" d="M 4.117188 24.5625 C 4.117188 24.652344 4.042969 24.726562 3.953125 24.726562 L 2.695312 24.726562 L 2.695312 24.402344 L 3.953125 24.402344 C 4.042969 24.402344 4.117188 24.476562 4.117188 24.5625 " fill-opacity="1" fill-rule="nonzero"/><path fill="#000000" d="M 2.777344 24.644531 L 3.953125 24.644531 C 3.996094 24.644531 4.035156 24.605469 4.035156 24.5625 C 4.035156 24.519531 4 24.484375 3.953125 24.484375 L 2.777344 24.484375 Z M 3.953125 24.804688 L 2.695312 24.804688 C 2.652344 24.804688 2.613281 24.769531 2.613281 24.726562 L 2.613281 24.402344 C 2.613281 24.359375 2.652344 24.320312 2.695312 24.320312 L 3.953125 24.320312 C 4.085938 24.320312 4.195312 24.429688 4.195312 24.5625 C 4.195312 24.699219 4.085938 24.804688 3.953125 24.804688 " fill-opacity="1" fill-rule="nonzero"/><path fill="#ff6100" d="M 4.117188 25.300781 C 4.117188 25.394531 4.042969 25.464844 3.953125 25.464844 L 2.695312 25.464844 L 2.695312 25.140625 L 3.953125 25.140625 C 4.042969 25.140625 4.117188 25.214844 4.117188 25.300781 " fill-opacity="1" fill-rule="nonzero"/><path fill="#000000" d="M 2.777344 25.382812 L 3.953125 25.382812 C 4 25.382812 4.035156 25.347656 4.035156 25.300781 C 4.035156 25.257812 4 25.222656 3.953125 25.222656 L 2.777344 25.222656 Z M 3.953125 25.542969 L 2.695312 25.542969 C 2.652344 25.542969 2.613281 25.507812 2.613281 25.464844 L 2.613281 25.140625 C 2.613281 25.097656 2.652344 25.058594 2.695312 25.058594 L 3.953125 25.058594 C 4.085938 25.058594 4.195312 25.167969 4.195312 25.300781 C 4.195312 25.4375 4.085938 25.542969 3.953125 25.542969 " fill-opacity="1" fill-rule="nonzero"/><path fill="#ff6100" d="M 9.285156 13.207031 L 8.964844 13.527344 L 5.757812 13.527344 L 5.757812 13.207031 L 9.285156 13.207031 " fill-opacity="1" fill-rule="nonzero"/><path fill="#000000" d="M 5.839844 13.449219 L 8.929688 13.449219 L 9.089844 13.289062 L 5.839844 13.289062 Z M 8.964844 13.609375 L 5.757812 13.609375 C 5.710938 13.609375 5.675781 13.574219 5.675781 13.527344 L 5.675781 13.207031 C 5.675781 13.160156 5.710938 13.125 5.757812 13.125 L 9.285156 13.125 C 9.320312 13.125 9.347656 13.144531 9.359375 13.175781 C 9.375 13.207031 9.367188 13.242188 9.34375 13.265625 L 9.019531 13.585938 C 9.003906 13.601562 8.984375 13.609375 8.964844 13.609375 " fill-opacity="1" fill-rule="nonzero"/><path fill="#ff6100" d="M 4.328125 20.398438 L 4.328125 20.722656 L 3.949219 20.722656 C 3.863281 20.722656 3.789062 20.648438 3.789062 20.558594 C 3.789062 20.46875 3.863281 20.398438 3.949219 20.398438 L 4.328125 20.398438 " fill-opacity="1" fill-rule="nonzero"/><path fill="#000000" d="M 3.949219 20.480469 C 3.90625 20.480469 3.871094 20.515625 3.871094 20.558594 C 3.871094 20.605469 3.90625 20.640625 3.949219 20.640625 L 4.25 20.640625 L 4.25 20.480469 Z M 4.328125 20.800781 L 3.949219 20.800781 C 3.816406 20.800781 3.707031 20.691406 3.707031 20.558594 C 3.707031 20.425781 3.816406 20.316406 3.949219 20.316406 L 4.328125 20.316406 C 4.375 20.316406 4.410156 20.351562 4.410156 20.398438 L 4.410156 20.71875 C 4.410156 20.765625 4.375 20.800781 4.328125 20.800781 " fill-opacity="1" fill-rule="nonzero"/><path fill="#ff6100" d="M 4.328125 21.042969 L 4.328125 21.367188 L 3.949219 21.367188 C 3.863281 21.367188 3.789062 21.292969 3.789062 21.203125 C 3.789062 21.113281 3.863281 21.042969 3.949219 21.042969 L 4.328125 21.042969 " fill-opacity="1" fill-rule="nonzero"/><path fill="#000000" d="M 3.949219 21.125 C 3.90625 21.125 3.871094 21.160156 3.871094 21.203125 C 3.871094 21.25 3.90625 21.285156 3.949219 21.285156 L 4.25 21.285156 L 4.25 21.125 Z M 4.328125 21.445312 L 3.949219 21.445312 C 3.816406 21.445312 3.707031 21.339844 3.707031 21.203125 C 3.707031 21.070312 3.816406 20.960938 3.949219 20.960938 L 4.328125 20.960938 C 4.375 20.960938 4.410156 21 4.410156 21.042969 L 4.410156 21.367188 C 4.410156 21.410156 4.375 21.445312 4.328125 21.445312 " fill-opacity="1" fill-rule="nonzero"/><path fill="#ff6100" d="M 5.90625 20.558594 C 5.90625 20.648438 5.832031 20.722656 5.746094 20.722656 L 5.363281 20.722656 L 5.363281 20.398438 L 5.746094 20.398438 C 5.832031 20.398438 5.90625 20.46875 5.90625 20.558594 " fill-opacity="1" fill-rule="nonzero"/><path fill="#000000" d="M 5.445312 20.640625 L 5.746094 20.640625 C 5.789062 20.640625 5.824219 20.605469 5.824219 20.558594 C 5.824219 20.515625 5.789062 20.480469 5.746094 20.480469 L 5.445312 20.480469 Z M 5.746094 20.800781 L 5.367188 20.800781 C 5.320312 20.800781 5.285156 20.765625 5.285156 20.71875 L 5.285156 20.398438 C 5.285156 20.351562 5.320312 20.316406 5.367188 20.316406 L 5.746094 20.316406 C 5.878906 20.316406 5.988281 20.425781 5.988281 20.558594 C 5.988281 20.691406 5.878906 20.800781 5.746094 20.800781 " fill-opacity="1" fill-rule="nonzero"/><path fill="#ff6100" d="M 5.90625 21.203125 C 5.90625 21.292969 5.832031 21.367188 5.746094 21.367188 L 5.363281 21.367188 L 5.363281 21.042969 L 5.746094 21.042969 C 5.832031 21.042969 5.90625 21.113281 5.90625 21.203125 " fill-opacity="1" fill-rule="nonzero"/><path fill="#000000" d="M 5.445312 21.285156 L 5.746094 21.285156 C 5.789062 21.285156 5.824219 21.25 5.824219 21.203125 C 5.824219 21.160156 5.789062 21.125 5.746094 21.125 L 5.445312 21.125 Z M 5.746094 21.445312 L 5.367188 21.445312 C 5.320312 21.445312 5.285156 21.410156 5.285156 21.367188 L 5.285156 21.042969 C 5.285156 21 5.320312 20.960938 5.367188 20.960938 L 5.746094 20.960938 C 5.878906 20.960938 5.988281 21.070312 5.988281 21.203125 C 5.988281 21.339844 5.878906 21.445312 5.746094 21.445312 " fill-opacity="1" fill-rule="nonzero"/><path fill="#ff6100" d="M 10.605469 14 L 10.511719 14.066406 L 10.160156 14.324219 L 7.078125 14.324219 L 7.402344 14 L 10.605469 14 " fill-opacity="1" fill-rule="nonzero"/><path fill="#000000" d="M 7.273438 14.242188 L 10.132812 14.242188 L 10.355469 14.082031 L 7.433594 14.082031 Z M 10.160156 14.402344 L 7.078125 14.402344 C 7.046875 14.402344 7.015625 14.382812 7.003906 14.355469 C 6.992188 14.324219 6.996094 14.289062 7.019531 14.265625 L 7.34375 13.941406 C 7.359375 13.925781 7.378906 13.917969 7.402344 13.917969 L 10.605469 13.917969 C 10.640625 13.917969 10.671875 13.941406 10.683594 13.976562 C 10.695312 14.007812 10.683594 14.046875 10.65625 14.066406 L 10.207031 14.386719 C 10.191406 14.398438 10.175781 14.402344 10.160156 14.402344 " fill-opacity="1" fill-rule="nonzero"/><path fill="#ff6100" d="M 6.871094 16.796875 L 8.402344 16.796875 L 8.402344 18.328125 L 6.871094 18.328125 L 6.871094 16.796875 " fill-opacity="1" fill-rule="nonzero"/><path fill="#000000" d="M 6.949219 18.246094 L 8.320312 18.246094 L 8.320312 16.875 L 6.949219 16.875 Z M 8.402344 18.40625 L 6.871094 18.40625 C 6.824219 18.40625 6.789062 18.371094 6.789062 18.328125 L 6.789062 16.796875 C 6.789062 16.75 6.824219 16.714844 6.871094 16.714844 L 8.402344 16.714844 C 8.445312 16.714844 8.484375 16.75 8.484375 16.796875 L 8.484375 18.328125 C 8.484375 18.371094 8.445312 18.40625 8.402344 18.40625 " fill-opacity="1" fill-rule="nonzero"/><path fill="#ff6100" d="M 5.285156 22.175781 L 8.871094 22.175781 L 8.871094 22.820312 L 5.285156 22.820312 L 5.285156 22.175781 " fill-opacity="1" fill-rule="nonzero"/><path fill="#000000" d="M 5.367188 22.738281 L 8.789062 22.738281 L 8.789062 22.257812 L 5.367188 22.257812 Z M 8.871094 22.902344 L 5.285156 22.902344 C 5.238281 22.902344 5.203125 22.863281 5.203125 22.820312 L 5.203125 22.175781 C 5.203125 22.128906 5.238281 22.09375 5.285156 22.09375 L 8.871094 22.09375 C 8.917969 22.09375 8.953125 22.128906 8.953125 22.175781 L 8.953125 22.820312 C 8.953125 22.863281 8.917969 22.902344 8.871094 22.902344 " fill-opacity="1" fill-rule="nonzero"/><path fill="#ff6100" d="M 5.433594 25.570312 L 5.554688 25.570312 L 5.554688 26.863281 L 5.433594 26.863281 L 5.433594 25.570312 " fill-opacity="1" fill-rule="nonzero"/><path fill="#000000" d="M 5.554688 26.941406 L 5.433594 26.941406 C 5.386719 26.941406 5.351562 26.90625 5.351562 26.863281 L 5.351562 25.570312 C 5.351562 25.527344 5.386719 25.492188 5.433594 25.492188 L 5.554688 25.492188 C 5.597656 25.492188 5.636719 25.527344 5.636719 25.570312 L 5.636719 26.863281 C 5.636719 26.90625 5.597656 26.941406 5.554688 26.941406 " fill-opacity="1" fill-rule="nonzero"/><path fill="#ff6100" d="M 4.847656 26.15625 L 6.78125 26.15625 L 6.78125 26.277344 L 4.847656 26.277344 L 4.847656 26.15625 " fill-opacity="1" fill-rule="nonzero"/><path fill="#000000" d="M 6.78125 26.359375 L 4.847656 26.359375 C 4.804688 26.359375 4.765625 26.324219 4.765625 26.277344 L 4.765625 26.15625 C 4.765625 26.109375 4.804688 26.074219 4.847656 26.074219 L 6.78125 26.074219 C 6.828125 26.074219 6.863281 26.109375 6.863281 26.15625 L 6.863281 26.277344 C 6.863281 26.324219 6.828125 26.359375 6.78125 26.359375 " fill-opacity="1" fill-rule="nonzero"/><path fill="#ff6100" d="M 6.078125 25.570312 L 6.199219 25.570312 L 6.199219 26.863281 L 6.078125 26.863281 L 6.078125 25.570312 " fill-opacity="1" fill-rule="nonzero"/><path fill="#000000" d="M 6.199219 26.941406 L 6.078125 26.941406 C 6.035156 26.941406 5.996094 26.90625 5.996094 26.863281 L 5.996094 25.570312 C 5.996094 25.527344 6.035156 25.492188 6.078125 25.492188 L 6.199219 25.492188 C 6.242188 25.492188 6.28125 25.527344 6.28125 25.570312 L 6.28125 26.863281 C 6.28125 26.90625 6.242188 26.941406 6.199219 26.941406 " fill-opacity="1" fill-rule="nonzero"/><path fill="#ff6100" d="M 5.554688 23.964844 L 8.539062 23.964844 L 8.539062 24.085938 L 5.554688 24.085938 L 5.554688 23.964844 " fill-opacity="1" fill-rule="nonzero"/><path fill="#000000" d="M 8.539062 24.167969 L 5.554688 24.167969 C 5.507812 24.167969 5.472656 24.132812 5.472656 24.085938 L 5.472656 23.964844 C 5.472656 23.921875 5.507812 23.882812 5.554688 23.882812 L 8.539062 23.882812 C 8.585938 23.882812 8.621094 23.921875 8.621094 23.964844 L 8.621094 24.085938 C 8.621094 24.132812 8.585938 24.167969 8.539062 24.167969 " fill-opacity="1" fill-rule="nonzero"/><path fill="#ff6100" d="M 5.554688 22.4375 L 8.539062 22.4375 L 8.539062 22.558594 L 5.554688 22.558594 L 5.554688 22.4375 " fill-opacity="1" fill-rule="nonzero"/><path fill="#000000" d="M 8.539062 22.636719 L 5.554688 22.636719 C 5.507812 22.636719 5.472656 22.601562 5.472656 22.558594 L 5.472656 22.4375 C 5.472656 22.390625 5.507812 22.355469 5.554688 22.355469 L 8.539062 22.355469 C 8.585938 22.355469 8.621094 22.390625 8.621094 22.4375 L 8.621094 22.558594 C 8.621094 22.601562 8.585938 22.636719 8.539062 22.636719 " fill-opacity="1" fill-rule="nonzero"/><path fill="#ff6100" d="M 10.546875 15.378906 L 10.667969 15.378906 L 10.667969 19.925781 L 10.546875 19.925781 L 10.546875 15.378906 " fill-opacity="1" fill-rule="nonzero"/><path fill="#000000" d="M 10.667969 20.007812 L 10.546875 20.007812 C 10.503906 20.007812 10.464844 19.972656 10.464844 19.925781 L 10.464844 15.378906 C 10.464844 15.332031 10.503906 15.296875 10.546875 15.296875 L 10.667969 15.296875 C 10.710938 15.296875 10.75 15.332031 10.75 15.378906 L 10.75 19.925781 C 10.75 19.972656 10.710938 20.007812 10.667969 20.007812 " fill-opacity="1" fill-rule="nonzero"/><path fill="#ff6100" d="M 11.660156 15.378906 L 11.78125 15.378906 L 11.78125 19.925781 L 11.660156 19.925781 L 11.660156 15.378906 " fill-opacity="1" fill-rule="nonzero"/><path fill="#000000" d="M 11.78125 20.007812 L 11.660156 20.007812 C 11.617188 20.007812 11.582031 19.972656 11.582031 19.925781 L 11.582031 15.378906 C 11.582031 15.332031 11.617188 15.296875 11.660156 15.296875 L 11.78125 15.296875 C 11.828125 15.296875 11.863281 15.332031 11.863281 15.378906 L 11.863281 19.925781 C 11.863281 19.972656 11.828125 20.007812 11.78125 20.007812 " fill-opacity="1" fill-rule="nonzero"/><path fill="#ff6100" d="M 12.765625 15.378906 L 12.886719 15.378906 L 12.886719 19.925781 L 12.765625 19.925781 L 12.765625 15.378906 " fill-opacity="1" fill-rule="nonzero"/><path fill="#000000" d="M 12.886719 20.007812 L 12.765625 20.007812 C 12.722656 20.007812 12.683594 19.972656 12.683594 19.925781 L 12.683594 15.378906 C 12.683594 15.332031 12.722656 15.296875 12.765625 15.296875 L 12.886719 15.296875 C 12.933594 15.296875 12.96875 15.332031 12.96875 15.378906 L 12.96875 19.925781 C 12.96875 19.972656 12.933594 20.007812 12.886719 20.007812 " fill-opacity="1" fill-rule="nonzero"/><path fill="#ff6100" d="M 13.894531 15.378906 L 14.015625 15.378906 L 14.015625 19.925781 L 13.894531 19.925781 L 13.894531 15.378906 " fill-opacity="1" fill-rule="nonzero"/><path fill="#000000" d="M 14.015625 20.007812 L 13.894531 20.007812 C 13.847656 20.007812 13.8125 19.972656 13.8125 19.925781 L 13.8125 15.378906 C 13.8125 15.332031 13.847656 15.296875 13.894531 15.296875 L 14.015625 15.296875 C 14.058594 15.296875 14.097656 15.332031 14.097656 15.378906 L 14.097656 19.925781 C 14.097656 19.972656 14.058594 20.007812 14.015625 20.007812 " fill-opacity="1" fill-rule="nonzero"/><path fill="#ff6100" d="M 13.074219 24.390625 L 12.464844 24.390625 L 11.566406 23.214844 L 13.015625 24.320312 C 13.039062 24.339844 13.058594 24.363281 13.074219 24.390625 " fill-opacity="1" fill-rule="nonzero"/><path fill="#000000" d="M 12.503906 24.308594 L 12.863281 24.308594 L 11.996094 23.648438 Z M 13.074219 24.472656 L 12.464844 24.472656 C 12.4375 24.472656 12.414062 24.460938 12.398438 24.4375 L 11.5 23.261719 C 11.476562 23.230469 11.480469 23.183594 11.507812 23.15625 C 11.535156 23.128906 11.582031 23.125 11.613281 23.148438 L 13.0625 24.257812 C 13.097656 24.28125 13.125 24.3125 13.144531 24.351562 C 13.160156 24.375 13.160156 24.40625 13.144531 24.429688 C 13.128906 24.457031 13.101562 24.472656 13.074219 24.472656 " fill-opacity="1" fill-rule="nonzero"/><path fill="#ff6100" d="M 13.167969 22.042969 L 11.730469 20.949219 C 11.699219 20.925781 11.679688 20.898438 11.660156 20.867188 L 12.269531 20.867188 L 13.167969 22.042969 " fill-opacity="1" fill-rule="nonzero"/><path fill="#000000" d="M 11.863281 20.949219 L 12.738281 21.613281 L 12.230469 20.949219 Z M 13.167969 22.125 C 13.152344 22.125 13.132812 22.117188 13.117188 22.109375 L 11.679688 21.011719 C 11.640625 20.984375 11.613281 20.945312 11.589844 20.90625 C 11.578125 20.878906 11.578125 20.847656 11.59375 20.824219 C 11.605469 20.800781 11.632812 20.785156 11.660156 20.785156 L 12.269531 20.785156 C 12.296875 20.785156 12.320312 20.796875 12.335938 20.816406 L 13.234375 21.992188 C 13.257812 22.027344 13.253906 22.070312 13.226562 22.101562 C 13.210938 22.117188 13.1875 22.125 13.167969 22.125 " fill-opacity="1" fill-rule="nonzero"/><path fill="#ff6100" d="M 5.191406 15.378906 L 5.191406 15.507812 L 2.695312 13.242188 L 2.695312 12.628906 L 5.191406 15.378906 " fill-opacity="1" fill-rule="nonzero"/><path fill="#000000" d="M 2.777344 13.207031 L 4.664062 14.917969 L 2.777344 12.839844 Z M 5.191406 15.585938 C 5.171875 15.585938 5.152344 15.582031 5.136719 15.566406 L 2.640625 13.300781 C 2.625 13.285156 2.613281 13.265625 2.613281 13.242188 L 2.613281 12.628906 C 2.613281 12.59375 2.636719 12.566406 2.667969 12.554688 C 2.699219 12.542969 2.734375 12.550781 2.757812 12.574219 L 5.25 15.324219 C 5.265625 15.339844 5.273438 15.359375 5.273438 15.378906 L 5.273438 15.507812 C 5.273438 15.539062 5.253906 15.566406 5.222656 15.582031 C 5.214844 15.585938 5.203125 15.585938 5.191406 15.585938 " fill-opacity="1" fill-rule="nonzero"/><path fill="#ff6100" d="M 5.191406 16.777344 L 5.191406 16.859375 L 2.695312 14.648438 L 2.695312 14.109375 L 5.191406 16.777344 " fill-opacity="1" fill-rule="nonzero"/><path fill="#000000" d="M 2.777344 14.613281 L 4.394531 16.046875 L 2.777344 14.3125 Z M 5.191406 16.941406 C 5.171875 16.941406 5.152344 16.933594 5.136719 16.921875 L 2.640625 14.710938 C 2.625 14.695312 2.613281 14.671875 2.613281 14.648438 L 2.613281 14.109375 C 2.613281 14.074219 2.636719 14.046875 2.667969 14.03125 C 2.699219 14.019531 2.734375 14.027344 2.753906 14.054688 L 5.25 16.722656 C 5.265625 16.738281 5.273438 16.757812 5.273438 16.777344 L 5.273438 16.859375 C 5.273438 16.890625 5.253906 16.921875 5.222656 16.933594 C 5.214844 16.9375 5.203125 16.941406 5.191406 16.941406 " fill-opacity="1" fill-rule="nonzero"/><path fill="#ff6100" d="M 4.785156 17.957031 L 4.722656 18.027344 L 2.695312 16.1875 L 2.695312 15.65625 L 4.785156 17.957031 " fill-opacity="1" fill-rule="nonzero"/><path fill="#000000" d="M 2.777344 16.152344 L 4.253906 17.492188 L 2.777344 15.867188 Z M 4.722656 18.109375 C 4.703125 18.109375 4.683594 18.101562 4.667969 18.085938 L 2.640625 16.246094 C 2.625 16.230469 2.613281 16.210938 2.613281 16.1875 L 2.613281 15.65625 C 2.613281 15.621094 2.636719 15.59375 2.667969 15.582031 C 2.699219 15.570312 2.734375 15.578125 2.757812 15.601562 L 4.84375 17.902344 C 4.871094 17.933594 4.871094 17.980469 4.84375 18.011719 L 4.78125 18.082031 C 4.769531 18.097656 4.746094 18.105469 4.726562 18.109375 C 4.726562 18.109375 4.722656 18.109375 4.722656 18.109375 " fill-opacity="1" fill-rule="nonzero"/><path fill="#ff6100" d="M 2.695312 17.660156 L 2.695312 20.265625 L 2.019531 20.25 L 2.019531 17.058594 L 2.695312 17.660156 " fill-opacity="1" fill-rule="nonzero"/><g clip-path="url(#1a7cebbee2)"><path fill="#000000" d="M 2.101562 20.171875 L 2.613281 20.183594 L 2.613281 17.699219 L 2.101562 17.238281 Z M 2.695312 20.347656 L 2.015625 20.332031 C 1.972656 20.328125 1.9375 20.292969 1.9375 20.25 L 1.9375 17.058594 C 1.9375 17.027344 1.957031 16.996094 1.984375 16.984375 C 2.015625 16.972656 2.050781 16.976562 2.074219 16.996094 L 2.75 17.601562 C 2.765625 17.617188 2.777344 17.636719 2.777344 17.660156 L 2.777344 20.265625 C 2.777344 20.289062 2.769531 20.308594 2.753906 20.324219 C 2.738281 20.339844 2.71875 20.347656 2.695312 20.347656 " fill-opacity="1" fill-rule="nonzero"/></g><path fill="#ff6100" d="M 2.695312 16.1875 L 2.695312 17.160156 L 2.019531 16.398438 L 2.019531 15.574219 L 2.695312 16.1875 " fill-opacity="1" fill-rule="nonzero"/><g clip-path="url(#5b04bfa961)"><path fill="#000000" d="M 2.101562 16.367188 L 2.613281 16.949219 L 2.613281 16.222656 L 2.101562 15.753906 Z M 2.695312 17.242188 C 2.671875 17.242188 2.652344 17.234375 2.636719 17.214844 L 1.957031 16.453125 C 1.945312 16.4375 1.9375 16.417969 1.9375 16.398438 L 1.9375 15.574219 C 1.9375 15.539062 1.957031 15.511719 1.984375 15.5 C 2.015625 15.484375 2.050781 15.492188 2.074219 15.511719 L 2.75 16.128906 C 2.769531 16.140625 2.777344 16.164062 2.777344 16.1875 L 2.777344 17.160156 C 2.777344 17.195312 2.757812 17.226562 2.726562 17.238281 C 2.714844 17.242188 2.707031 17.242188 2.695312 17.242188 " fill-opacity="1" fill-rule="nonzero"/></g><path fill="#ff6100" d="M 2.695312 14.648438 L 2.695312 15.65625 L 2.019531 14.910156 L 2.019531 14.046875 L 2.695312 14.648438 " fill-opacity="1" fill-rule="nonzero"/><g clip-path="url(#aa98322428)"><path fill="#000000" d="M 2.101562 14.878906 L 2.613281 15.445312 L 2.613281 14.683594 L 2.101562 14.226562 Z M 2.695312 15.738281 C 2.671875 15.738281 2.652344 15.726562 2.636719 15.710938 L 1.957031 14.964844 C 1.945312 14.949219 1.9375 14.929688 1.9375 14.910156 L 1.9375 14.046875 C 1.9375 14.015625 1.957031 13.988281 1.984375 13.972656 C 2.015625 13.960938 2.046875 13.964844 2.074219 13.988281 L 2.75 14.585938 C 2.765625 14.601562 2.777344 14.625 2.777344 14.648438 L 2.777344 15.65625 C 2.777344 15.691406 2.757812 15.71875 2.726562 15.730469 C 2.714844 15.734375 2.707031 15.738281 2.695312 15.738281 " fill-opacity="1" fill-rule="nonzero"/></g><path fill="#ff6100" d="M 2.695312 13.242188 L 2.695312 14.109375 L 2.019531 13.382812 L 2.019531 12.628906 L 2.695312 13.242188 " fill-opacity="1" fill-rule="nonzero"/><g clip-path="url(#76b024ee3a)"><path fill="#000000" d="M 2.101562 13.351562 L 2.613281 13.902344 L 2.613281 13.277344 L 2.101562 12.8125 Z M 2.695312 14.191406 C 2.675781 14.191406 2.652344 14.179688 2.636719 14.164062 L 1.960938 13.4375 C 1.945312 13.425781 1.9375 13.40625 1.9375 13.382812 L 1.9375 12.628906 C 1.9375 12.59375 1.957031 12.566406 1.984375 12.554688 C 2.015625 12.539062 2.050781 12.546875 2.074219 12.566406 L 2.75 13.183594 C 2.769531 13.199219 2.777344 13.21875 2.777344 13.242188 L 2.777344 14.109375 C 2.777344 14.140625 2.757812 14.171875 2.726562 14.183594 C 2.714844 14.1875 2.707031 14.191406 2.695312 14.191406 " fill-opacity="1" fill-rule="nonzero"/></g><g clip-path="url(#82e1808833)"><path fill="#ff6100" d="M 2.695312 11.390625 L 2.695312 12.628906 L 2.019531 11.882812 L 2.019531 11.328125 L 2.636719 11.328125 L 2.695312 11.390625 " fill-opacity="1" fill-rule="nonzero"/></g><g clip-path="url(#7b4f3a640c)"><path fill="#000000" d="M 2.101562 11.851562 L 2.613281 12.417969 L 2.613281 11.421875 L 2.601562 11.40625 L 2.101562 11.40625 Z M 2.695312 12.710938 C 2.671875 12.710938 2.652344 12.699219 2.636719 12.683594 L 1.957031 11.9375 C 1.945312 11.921875 1.9375 11.902344 1.9375 11.882812 L 1.9375 11.328125 C 1.9375 11.28125 1.972656 11.246094 2.019531 11.246094 L 2.636719 11.246094 C 2.660156 11.246094 2.679688 11.253906 2.695312 11.269531 L 2.753906 11.335938 C 2.769531 11.351562 2.777344 11.371094 2.777344 11.390625 L 2.777344 12.628906 C 2.777344 12.664062 2.757812 12.691406 2.726562 12.703125 C 2.714844 12.707031 2.707031 12.710938 2.695312 12.710938 " fill-opacity="1" fill-rule="nonzero"/></g><g clip-path="url(#d941965402)"><path fill="#ff6100" d="M 2.695312 12.628906 L 2.695312 13.242188 L 2.019531 12.628906 L 2.019531 11.882812 L 2.695312 12.628906 " fill-opacity="1" fill-rule="nonzero"/></g><g clip-path="url(#1b06480d0c)"><path fill="#000000" d="M 2.101562 12.589844 L 2.613281 13.058594 L 2.613281 12.660156 L 2.101562 12.09375 Z M 2.695312 13.324219 C 2.675781 13.324219 2.65625 13.316406 2.640625 13.300781 L 1.964844 12.6875 C 1.949219 12.671875 1.9375 12.648438 1.9375 12.628906 L 1.9375 11.882812 C 1.9375 11.847656 1.957031 11.820312 1.988281 11.808594 C 2.019531 11.792969 2.054688 11.804688 2.078125 11.828125 L 2.757812 12.574219 C 2.769531 12.589844 2.777344 12.609375 2.777344 12.628906 L 2.777344 13.242188 C 2.777344 13.273438 2.757812 13.304688 2.730469 13.316406 C 2.71875 13.320312 2.707031 13.324219 2.695312 13.324219 " fill-opacity="1" fill-rule="nonzero"/></g><path fill="#ff6100" d="M 2.695312 14.109375 L 2.695312 14.648438 L 2.019531 14.046875 L 2.019531 13.382812 L 2.695312 14.109375 " fill-opacity="1" fill-rule="nonzero"/><g clip-path="url(#62f29f7ece)"><path fill="#000000" d="M 2.101562 14.011719 L 2.613281 14.46875 L 2.613281 14.140625 L 2.101562 13.589844 Z M 2.695312 14.730469 C 2.675781 14.730469 2.65625 14.722656 2.640625 14.710938 L 1.964844 14.109375 C 1.949219 14.09375 1.9375 14.070312 1.9375 14.046875 L 1.9375 13.382812 C 1.9375 13.351562 1.957031 13.320312 1.988281 13.308594 C 2.019531 13.296875 2.054688 13.304688 2.078125 13.328125 L 2.753906 14.054688 C 2.769531 14.066406 2.777344 14.085938 2.777344 14.109375 L 2.777344 14.648438 C 2.777344 14.679688 2.757812 14.710938 2.730469 14.722656 C 2.71875 14.726562 2.707031 14.730469 2.695312 14.730469 " fill-opacity="1" fill-rule="nonzero"/></g><path fill="#ff6100" d="M 2.695312 15.65625 L 2.695312 16.1875 L 2.019531 15.574219 L 2.019531 14.910156 L 2.695312 15.65625 " fill-opacity="1" fill-rule="nonzero"/><g clip-path="url(#c927464d6f)"><path fill="#000000" d="M 2.101562 15.535156 L 2.613281 16.003906 L 2.613281 15.6875 L 2.101562 15.121094 Z M 2.695312 16.269531 C 2.675781 16.269531 2.65625 16.261719 2.640625 16.246094 L 1.964844 15.632812 C 1.949219 15.617188 1.9375 15.59375 1.9375 15.574219 L 1.9375 14.910156 C 1.9375 14.875 1.957031 14.847656 1.988281 14.835938 C 2.019531 14.820312 2.054688 14.832031 2.078125 14.855469 L 2.757812 15.601562 C 2.769531 15.617188 2.777344 15.636719 2.777344 15.65625 L 2.777344 16.1875 C 2.777344 16.21875 2.757812 16.25 2.730469 16.261719 C 2.71875 16.265625 2.707031 16.269531 2.695312 16.269531 " fill-opacity="1" fill-rule="nonzero"/></g><path fill="#ff6100" d="M 2.695312 17.160156 L 2.695312 17.660156 L 2.019531 17.058594 L 2.019531 16.398438 L 2.695312 17.160156 " fill-opacity="1" fill-rule="nonzero"/><g clip-path="url(#481fcee71a)"><path fill="#000000" d="M 2.101562 17.023438 L 2.613281 17.480469 L 2.613281 17.191406 L 2.101562 16.613281 Z M 2.695312 17.742188 C 2.675781 17.742188 2.65625 17.734375 2.640625 17.722656 L 1.964844 17.117188 C 1.949219 17.101562 1.9375 17.082031 1.9375 17.058594 L 1.9375 16.398438 C 1.9375 16.367188 1.957031 16.335938 1.988281 16.324219 C 2.019531 16.3125 2.058594 16.320312 2.078125 16.347656 L 2.757812 17.109375 C 2.769531 17.121094 2.777344 17.140625 2.777344 17.160156 L 2.777344 17.660156 C 2.777344 17.691406 2.757812 17.722656 2.730469 17.734375 C 2.71875 17.738281 2.707031 17.742188 2.695312 17.742188 " fill-opacity="1" fill-rule="nonzero"/></g><path fill="#ff6100" d="M 4.089844 18.726562 L 4 18.824219 L 2.695312 17.660156 L 2.695312 17.160156 L 4.089844 18.726562 " fill-opacity="1" fill-rule="nonzero"/><path fill="#000000" d="M 2.777344 17.625 L 3.859375 18.589844 L 2.777344 17.375 Z M 4 18.90625 C 3.980469 18.90625 3.960938 18.898438 3.945312 18.882812 L 2.640625 17.722656 C 2.625 17.707031 2.613281 17.683594 2.613281 17.660156 L 2.613281 17.160156 C 2.613281 17.128906 2.636719 17.097656 2.667969 17.085938 C 2.699219 17.074219 2.734375 17.082031 2.757812 17.105469 L 4.148438 18.671875 C 4.175781 18.703125 4.175781 18.75 4.148438 18.78125 L 4.0625 18.878906 C 4.046875 18.894531 4.023438 18.90625 4 18.90625 " fill-opacity="1" fill-rule="nonzero"/><g clip-path="url(#bf929b375d)"><path fill="#000000" d="M 27.964844 19.214844 L 17.382812 19.214844 C 17.09375 19.214844 16.863281 19.453125 16.863281 19.746094 L 16.863281 27.316406 C 16.863281 27.609375 17.097656 27.847656 17.382812 27.847656 L 27.96875 27.847656 C 28.253906 27.847656 28.484375 27.609375 28.484375 27.316406 L 28.484375 19.746094 C 28.484375 19.453125 28.25 19.214844 27.964844 19.214844 Z M 28.015625 21.414062 L 27.21875 21.414062 L 27.21875 20.980469 L 28.015625 20.980469 Z M 27.21875 24.898438 L 28.015625 24.898438 L 28.015625 25.164062 L 27.21875 25.164062 Z M 27.21875 24.414062 L 27.21875 24.144531 L 28.015625 24.144531 L 28.015625 24.414062 Z M 27.21875 23.664062 L 27.21875 23.394531 L 28.015625 23.394531 L 28.015625 23.664062 Z M 27.21875 22.914062 L 27.21875 22.648438 L 28.015625 22.648438 L 28.015625 22.914062 Z M 27.21875 22.164062 L 27.21875 21.898438 L 28.015625 21.898438 L 28.015625 22.164062 Z M 27.21875 25.648438 L 28.015625 25.648438 L 28.015625 26.082031 L 27.21875 26.082031 Z M 27.964844 27.367188 L 17.382812 27.367188 C 17.355469 27.367188 17.332031 27.34375 17.332031 27.316406 L 17.332031 19.746094 C 17.332031 19.71875 17.355469 19.695312 17.382812 19.695312 L 27.96875 19.695312 C 27.992188 19.695312 28.015625 19.71875 28.015625 19.746094 L 28.015625 20.5 L 26.984375 20.5 C 26.855469 20.5 26.75 20.605469 26.75 20.738281 L 26.75 26.320312 C 26.75 26.453125 26.855469 26.558594 26.984375 26.558594 L 28.015625 26.558594 L 28.015625 27.3125 C 28.015625 27.34375 27.992188 27.367188 27.964844 27.367188 Z M 27.964844 27.367188 " fill-opacity="1" fill-rule="nonzero"/></g><path fill="#000000" d="M 20.132812 24.480469 C 19.945312 24.480469 19.789062 24.320312 19.789062 24.125 C 19.789062 23.992188 19.683594 23.882812 19.554688 23.882812 C 19.425781 23.882812 19.320312 23.992188 19.320312 24.125 C 19.320312 24.585938 19.683594 24.960938 20.132812 24.960938 C 20.582031 24.960938 20.945312 24.585938 20.945312 24.125 C 20.945312 23.664062 20.582031 23.289062 20.132812 23.289062 C 19.945312 23.289062 19.789062 23.128906 19.789062 22.9375 C 19.789062 22.742188 19.945312 22.582031 20.132812 22.582031 C 20.324219 22.582031 20.476562 22.742188 20.476562 22.9375 C 20.476562 23.070312 20.582031 23.175781 20.710938 23.175781 C 20.839844 23.175781 20.945312 23.070312 20.945312 22.9375 C 20.945312 22.476562 20.582031 22.101562 20.132812 22.101562 C 19.683594 22.101562 19.320312 22.476562 19.320312 22.9375 C 19.320312 23.398438 19.683594 23.773438 20.132812 23.773438 C 20.324219 23.773438 20.476562 23.929688 20.476562 24.125 C 20.476562 24.320312 20.324219 24.480469 20.132812 24.480469 Z M 20.132812 24.480469 " fill-opacity="1" fill-rule="nonzero"/><path fill="#000000" d="M 21.953125 24.480469 C 21.761719 24.480469 21.605469 24.320312 21.605469 24.125 C 21.605469 23.992188 21.503906 23.882812 21.371094 23.882812 C 21.242188 23.882812 21.136719 23.992188 21.136719 24.125 C 21.136719 24.585938 21.503906 24.960938 21.953125 24.960938 C 22.398438 24.960938 22.765625 24.585938 22.765625 24.125 C 22.765625 23.664062 22.398438 23.289062 21.953125 23.289062 C 21.761719 23.289062 21.605469 23.128906 21.605469 22.9375 C 21.605469 22.742188 21.761719 22.582031 21.953125 22.582031 C 22.140625 22.582031 22.296875 22.742188 22.296875 22.9375 C 22.296875 23.070312 22.398438 23.175781 22.53125 23.175781 C 22.660156 23.175781 22.765625 23.070312 22.765625 22.9375 C 22.765625 22.476562 22.398438 22.101562 21.953125 22.101562 C 21.503906 22.101562 21.136719 22.476562 21.136719 22.9375 C 21.136719 23.398438 21.503906 23.773438 21.953125 23.773438 C 22.140625 23.773438 22.296875 23.929688 22.296875 24.125 C 22.296875 24.320312 22.140625 24.480469 21.953125 24.480469 Z M 21.953125 24.480469 " fill-opacity="1" fill-rule="nonzero"/><path fill="#000000" d="M 23.238281 24.960938 L 23.914062 24.960938 C 24.542969 24.960938 25.058594 24.433594 25.058594 23.785156 L 25.058594 23.28125 C 25.058594 22.632812 24.542969 22.101562 23.914062 22.101562 L 23.238281 22.101562 C 23.109375 22.101562 23.003906 22.210938 23.003906 22.34375 L 23.003906 24.722656 C 23.003906 24.851562 23.109375 24.960938 23.238281 24.960938 Z M 23.472656 22.582031 L 23.914062 22.582031 C 24.285156 22.582031 24.589844 22.894531 24.589844 23.277344 L 24.589844 23.78125 C 24.589844 24.164062 24.285156 24.476562 23.914062 24.476562 L 23.472656 24.476562 Z M 23.472656 22.582031 " fill-opacity="1" fill-rule="nonzero"/><path fill="#000000" d="M 25.996094 20.5 L 18.386719 20.5 C 18.257812 20.5 18.152344 20.609375 18.152344 20.742188 L 18.152344 26.320312 C 18.152344 26.453125 18.257812 26.5625 18.386719 26.5625 L 25.996094 26.5625 C 26.125 26.5625 26.230469 26.453125 26.230469 26.320312 L 26.230469 20.742188 C 26.230469 20.609375 26.125 20.5 25.996094 20.5 Z M 25.761719 26.078125 L 18.621094 26.078125 L 18.621094 20.980469 L 25.761719 20.980469 Z M 25.761719 26.078125 " fill-opacity="1" fill-rule="nonzero"/><path fill="#0cc0df" d="M 23.726562 10.945312 L 21.601562 10.945312 C 21.085938 10.945312 20.664062 11.367188 20.664062 11.886719 L 20.664062 14.007812 C 20.664062 14.527344 21.085938 14.949219 21.601562 14.949219 L 23.726562 14.949219 C 24.246094 14.949219 24.667969 14.527344 24.667969 14.007812 L 24.667969 11.886719 C 24.667969 11.367188 24.246094 10.945312 23.726562 10.945312 Z M 23.726562 10.945312 " fill-opacity="1" fill-rule="nonzero"/><g clip-path="url(#a07574431f)"><path fill="#0cc0df" d="M 27.128906 11.414062 L 27.128906 10.777344 L 26.007812 10.777344 C 25.972656 10.148438 25.464844 9.640625 24.835938 9.601562 L 24.835938 8.484375 L 24.199219 8.484375 L 24.199219 9.597656 L 23.601562 9.597656 L 23.601562 8.484375 L 22.964844 8.484375 L 22.964844 9.597656 L 22.367188 9.597656 L 22.367188 8.484375 L 21.730469 8.484375 L 21.730469 9.597656 L 21.128906 9.597656 L 21.128906 8.484375 L 20.496094 8.484375 L 20.496094 9.601562 C 19.863281 9.640625 19.359375 10.148438 19.320312 10.777344 L 18.203125 10.777344 L 18.203125 11.414062 L 19.316406 11.414062 L 19.316406 12.011719 L 18.203125 12.011719 L 18.203125 12.648438 L 19.316406 12.648438 L 19.316406 13.246094 L 18.203125 13.246094 L 18.203125 13.882812 L 19.316406 13.882812 L 19.316406 14.480469 L 18.203125 14.480469 L 18.203125 15.117188 L 19.320312 15.117188 C 19.359375 15.746094 19.863281 16.253906 20.496094 16.292969 L 20.496094 17.410156 L 21.128906 17.410156 L 21.128906 16.296875 L 21.730469 16.296875 L 21.730469 17.410156 L 22.367188 17.410156 L 22.367188 16.296875 L 22.964844 16.296875 L 22.964844 17.410156 L 23.601562 17.410156 L 23.601562 16.296875 L 24.199219 16.296875 L 24.199219 17.410156 L 24.835938 17.410156 L 24.835938 16.292969 C 25.464844 16.253906 25.972656 15.746094 26.007812 15.117188 L 27.128906 15.117188 L 27.128906 14.480469 L 26.011719 14.480469 L 26.011719 13.882812 L 27.128906 13.882812 L 27.128906 13.246094 L 26.011719 13.246094 L 26.011719 12.648438 L 27.128906 12.648438 L 27.128906 12.011719 L 26.011719 12.011719 L 26.011719 11.414062 Z M 25.386719 15.042969 C 25.386719 15.386719 25.105469 15.667969 24.757812 15.667969 L 20.570312 15.667969 C 20.226562 15.667969 19.945312 15.386719 19.945312 15.042969 L 19.945312 10.855469 C 19.945312 10.507812 20.226562 10.226562 20.570312 10.226562 L 24.757812 10.226562 C 25.105469 10.226562 25.386719 10.507812 25.386719 10.855469 Z M 25.386719 15.042969 " fill-opacity="1" fill-rule="nonzero"/></g><g clip-path="url(#6de7ba86ac)"><path fill="#00bf63" d="M 27.960938 2.285156 L 28.085938 2.285156 C 28.296875 2.285156 28.472656 2.113281 28.472656 1.898438 L 28.472656 1.523438 C 28.472656 1.285156 28.277344 1.089844 28.039062 1.089844 L 17.292969 1.089844 C 17.054688 1.089844 16.859375 1.285156 16.859375 1.523438 L 16.859375 1.898438 C 16.859375 2.113281 17.03125 2.285156 17.246094 2.285156 L 17.371094 2.285156 C 17.558594 2.285156 17.714844 2.4375 17.714844 2.628906 C 17.714844 2.816406 17.558594 2.96875 17.371094 2.96875 L 17.246094 2.96875 C 17.03125 2.96875 16.859375 3.144531 16.859375 3.355469 L 16.859375 5.269531 C 16.859375 5.507812 17.054688 5.703125 17.292969 5.703125 L 17.371094 5.703125 L 17.371094 6.167969 C 17.371094 6.476562 17.621094 6.726562 17.929688 6.726562 L 20.570312 6.726562 C 20.878906 6.726562 21.128906 6.476562 21.128906 6.167969 L 21.128906 5.703125 L 21.640625 5.703125 L 21.640625 6.167969 C 21.640625 6.476562 21.890625 6.726562 22.199219 6.726562 L 27.402344 6.726562 C 27.710938 6.726562 27.960938 6.476562 27.960938 6.167969 L 27.960938 5.703125 L 28.039062 5.703125 C 28.277344 5.703125 28.472656 5.507812 28.472656 5.269531 L 28.472656 3.355469 C 28.472656 3.144531 28.296875 2.96875 28.085938 2.96875 L 27.960938 2.96875 C 27.769531 2.96875 27.617188 2.816406 27.617188 2.628906 C 27.617188 2.4375 27.769531 2.285156 27.960938 2.285156 Z M 17.714844 6.167969 L 17.714844 5.703125 L 18.226562 5.703125 L 18.226562 6.382812 L 17.929688 6.382812 C 17.808594 6.382812 17.714844 6.289062 17.714844 6.167969 Z M 19.078125 5.703125 L 19.078125 6.382812 L 18.566406 6.382812 L 18.566406 5.703125 Z M 19.933594 5.703125 L 19.933594 6.382812 L 19.421875 6.382812 L 19.421875 5.703125 Z M 20.785156 6.167969 C 20.785156 6.289062 20.691406 6.382812 20.570312 6.382812 L 20.273438 6.382812 L 20.273438 5.703125 L 20.785156 5.703125 Z M 21.984375 6.167969 L 21.984375 5.703125 L 22.496094 5.703125 L 22.496094 6.382812 L 22.199219 6.382812 C 22.078125 6.382812 21.984375 6.289062 21.984375 6.167969 Z M 23.347656 5.703125 L 23.347656 6.382812 L 22.835938 6.382812 L 22.835938 5.703125 Z M 24.203125 5.703125 L 24.203125 6.382812 L 23.691406 6.382812 L 23.691406 5.703125 Z M 25.054688 5.703125 L 25.054688 6.382812 L 24.542969 6.382812 L 24.542969 5.703125 Z M 25.910156 5.703125 L 25.910156 6.382812 L 25.398438 6.382812 L 25.398438 5.703125 Z M 26.765625 5.703125 L 26.765625 6.382812 L 26.25 6.382812 L 26.25 5.703125 Z M 27.617188 6.167969 C 27.617188 6.289062 27.519531 6.382812 27.402344 6.382812 L 27.105469 6.382812 L 27.105469 5.703125 L 27.617188 5.703125 Z M 27.960938 3.3125 L 28.085938 3.3125 C 28.109375 3.3125 28.128906 3.332031 28.128906 3.355469 L 28.128906 5.269531 C 28.128906 5.320312 28.089844 5.359375 28.039062 5.359375 L 17.292969 5.359375 C 17.242188 5.359375 17.199219 5.320312 17.199219 5.269531 L 17.199219 3.355469 C 17.199219 3.332031 17.222656 3.3125 17.246094 3.3125 L 17.371094 3.3125 C 17.75 3.3125 18.054688 3.003906 18.054688 2.628906 C 18.054688 2.25 17.75 1.945312 17.371094 1.945312 L 17.246094 1.945312 C 17.222656 1.945312 17.199219 1.925781 17.199219 1.898438 L 17.199219 1.523438 C 17.199219 1.472656 17.242188 1.433594 17.292969 1.433594 L 28.039062 1.433594 C 28.089844 1.433594 28.128906 1.472656 28.128906 1.523438 L 28.128906 1.898438 C 28.128906 1.925781 28.109375 1.945312 28.085938 1.945312 L 27.960938 1.945312 C 27.582031 1.945312 27.277344 2.25 27.277344 2.628906 C 27.277344 3.003906 27.582031 3.3125 27.960938 3.3125 Z M 27.960938 3.3125 " fill-opacity="1" fill-rule="nonzero"/></g><g clip-path="url(#b3f4a15e91)"><path fill="#00bf63" d="M 22.808594 1.773438 L 19.109375 1.773438 C 18.714844 1.773438 18.394531 2.09375 18.394531 2.484375 L 18.394531 4.308594 C 18.394531 4.699219 18.714844 5.019531 19.109375 5.019531 L 22.808594 5.019531 C 23.199219 5.019531 23.519531 4.699219 23.519531 4.308594 L 23.519531 2.484375 C 23.519531 2.09375 23.199219 1.773438 22.808594 1.773438 Z M 23.179688 4.308594 C 23.179688 4.511719 23.011719 4.675781 22.808594 4.675781 L 19.109375 4.675781 C 18.902344 4.675781 18.738281 4.511719 18.738281 4.308594 L 18.738281 2.484375 C 18.738281 2.28125 18.902344 2.117188 19.109375 2.117188 L 22.808594 2.117188 C 23.011719 2.117188 23.179688 2.28125 23.179688 2.484375 Z M 23.179688 4.308594 " fill-opacity="1" fill-rule="nonzero"/></g><g clip-path="url(#256dfa67cb)"><path fill="#00bf63" d="M 24.9375 1.773438 L 24.320312 1.773438 C 24.160156 1.773438 24.03125 1.902344 24.03125 2.0625 L 24.03125 4.726562 C 24.03125 4.886719 24.160156 5.019531 24.320312 5.019531 L 24.9375 5.019531 C 25.097656 5.019531 25.226562 4.886719 25.226562 4.726562 L 25.226562 2.0625 C 25.226562 1.902344 25.097656 1.773438 24.9375 1.773438 Z M 24.9375 1.773438 " fill-opacity="1" fill-rule="nonzero"/></g><g clip-path="url(#38fc57da9e)"><path fill="#00bf63" d="M 26.644531 1.773438 L 26.03125 1.773438 C 25.871094 1.773438 25.738281 1.902344 25.738281 2.0625 L 25.738281 4.726562 C 25.738281 4.886719 25.871094 5.019531 26.03125 5.019531 L 26.644531 5.019531 C 26.804688 5.019531 26.933594 4.886719 26.933594 4.726562 L 26.933594 2.0625 C 26.933594 1.902344 26.804688 1.773438 26.644531 1.773438 Z M 26.644531 1.773438 " fill-opacity="1" fill-rule="nonzero"/></g></svg>